<svg width="18" height="18" viewBox="0 0 18 18" fill="none" xmlns="http://www.w3.org/2000/svg">
    <path fill-rule="evenodd" clip-rule="evenodd" d="M15 0H3C1.34315 0 0 1.34315 0 3V15C0 16.6569 1.34315 18 3 18H15C16.6569 18 18 16.6569 18 15V3C18 1.34315 16.6569 0 15 0ZM16 15C16 15.5523 15.5523 16 15 16H3C2.44772 16 2 15.5523 2 15V3C2 2.44772 2.44772 2 3 2H15C15.5523 2 16 2.44772 16 3V15ZM7.92121 10.39L11.7012 5.38998H11.6912C12.0281 4.94815 12.6594 4.86309 13.1012 5.19998C13.543 5.53687 13.6281 6.16815 13.2912 6.60998L8.72121 12.61C8.53241 12.8552 8.2407 12.9992 7.93121 13C7.62343 13.0016 7.33203 12.8615 7.14121 12.62L4.71121 9.50998C4.37155 9.07368 4.4499 8.44464 4.88621 8.10498C5.32251 7.76533 5.95155 7.84368 6.29121 8.27998L7.92121 10.39Z" fill="#2F80ED"/>
</svg>
