<svg width="48" height="48" viewBox="0 0 48 48" fill="none" xmlns="http://www.w3.org/2000/svg">
    <path d="M46.1091 29.9637L42.6909 24V21.2364C42.6909 9.96366 33.5273 0.727295 22.1818 0.727295C2.9091 0.727295 -5.38181 24.7273 8.94547 36.8728V46.5455C8.94547 46.9818 9.23638 47.2728 9.67274 47.2728H33.8182C34.2546 47.2728 34.5455 46.9818 34.5455 46.5455V42.6182H38.0364C39.9273 42.6182 41.4546 41.0909 41.4546 39.2V32.4364H44.6546C45.8909 32.3637 46.6909 31.0546 46.1091 29.9637V29.9637ZM44.6546 30.9091H40.7273C40.2909 30.9091 40 31.2 40 31.6364V39.1273C40 40.2182 39.1273 41.0909 38.0364 41.0909H33.8182C33.3818 41.0909 33.0909 41.3818 33.0909 41.8182V45.8182H10.4V36.5818C10.4 36.3637 10.3273 36.1455 10.1091 36C-3.63635 24.6546 4.36365 2.18184 22.1818 2.18184C32.7273 2.18184 41.2364 10.7637 41.2364 21.2364V24.1455C41.2364 24.5091 41.2364 24.2909 44.8 30.6182C44.8727 30.7637 44.8 30.9091 44.6546 30.9091Z" fill="#2F80ED"/>
    <path d="M30.9818 10.9091C30.909 10.9091 15.5636 10.9091 15.4181 10.9091C13.4545 10.9091 11.8545 12.5091 11.8545 14.4728V30.0364C11.8545 32 13.4545 33.6 15.4181 33.6C15.4909 33.6 14.5454 33.6 30.9818 33.6728C32.9454 33.6728 34.5454 32.0728 34.5454 30.1091C34.5454 26.6909 34.5454 23.5637 34.5454 14.4728C34.5454 12.5091 32.9454 10.9091 30.9818 10.9091V10.9091ZM33.0909 14.4V21.4546H31.5636C31.3454 20.5818 30.8363 19.8546 30.0363 19.4909C29.0181 18.9818 27.8545 18.9818 26.9818 19.5637C26.2545 20 25.8181 20.6546 25.5999 21.4546H23.9999V19.2728C23.9999 18.8364 23.709 18.5455 23.2727 18.5455C22.3999 18.5455 21.5999 17.8182 21.5999 16.8728C21.5999 15.9273 22.3272 15.2 23.2727 15.2C23.709 15.2 23.9999 14.9091 23.9999 14.4728V12.2909H31.0545C32.1454 12.3637 33.0909 13.3091 33.0909 14.4V14.4ZM13.309 14.4C13.309 13.2364 14.2545 12.2909 15.4181 12.2909H22.4727V13.8909C21.0909 14.2546 20.0727 15.4182 20.0727 16.9455C20.0727 18.4 21.0909 19.6364 22.4727 19.9273V21.4546H20.2909C19.8545 21.4546 19.5636 21.8182 19.5636 22.1818C19.5636 24.3637 16.2909 24.3637 16.2909 22.1818C16.2909 21.7455 15.9999 21.4546 15.5636 21.4546H13.3818V14.4H13.309ZM13.309 30.0364V22.9818H14.8363C15.1999 24.4364 16.4363 25.3818 17.8909 25.3818C19.2727 25.3818 20.5818 24.4364 20.8727 22.9818H22.4727V25.1637C22.4727 25.6 22.7636 25.8909 23.1999 25.8909C24.0727 25.8909 24.8727 26.6182 24.8727 27.5637C24.8727 28.5091 24.1454 29.2364 23.1999 29.2364C22.7636 29.2364 22.4727 29.5273 22.4727 29.9637V32.1455H15.4181C14.2545 32.0728 13.309 31.2 13.309 30.0364V30.0364ZM33.0909 30.0364C33.0909 31.2 32.1454 32.1455 30.9818 32.1455H23.9272V30.5455C25.309 30.1818 26.3272 29.0182 26.3272 27.4909C26.3272 26.0364 25.309 24.8 23.9272 24.5091V22.9818H26.109C26.3999 22.9818 26.6909 22.7637 26.7636 22.4728V22.4C26.7636 22.3273 26.8363 22.2546 26.8363 22.1818C26.8363 21.6 27.1272 21.0909 27.6363 20.8C27.9272 20.6546 28.509 20.3637 29.309 20.8C29.8181 21.0182 30.109 21.6 30.109 22.2546C30.109 22.6909 30.3999 22.9818 30.8363 22.9818H33.0181V30.0364H33.0909Z" fill="#2F80ED"/>
</svg>
