<svg width="48" height="48" viewBox="0 0 48 48" fill="none" xmlns="http://www.w3.org/2000/svg">
    <path d="M17.6002 19.491C20.3639 19.491 22.6184 17.2364 22.6184 14.4728C22.6184 11.7091 20.3639 9.45459 17.6002 9.45459C14.8366 9.45459 12.582 11.7091 12.582 14.4728C12.582 17.3091 14.8366 19.491 17.6002 19.491ZM17.6002 10.9819C19.5639 10.9819 21.1639 12.5819 21.1639 14.5455C21.1639 16.5091 19.5639 18.1091 17.6002 18.1091C15.6366 18.1091 14.0366 16.5091 14.0366 14.5455C14.0366 12.5819 15.6366 10.9819 17.6002 10.9819Z" fill="#2F80ED"/>
    <path d="M25.3819 18.5455C25.3091 18.7636 25.3091 19.0545 25.5273 19.2727C25.6728 19.4909 25.9637 19.5636 26.1819 19.5636L30.2546 19.0545C32.4364 19.6364 34.691 19.1273 36.5091 17.7455C38.3273 16.3636 39.4182 14.1818 39.4182 11.8545C39.4182 7.78182 36.0728 4.50909 32.0728 4.50909C29.1637 4.50909 26.6182 6.18182 25.3819 8.8C24.2182 11.3455 24.5819 14.1818 26.2546 16.3636L25.3819 18.5455ZM26.691 9.38182C27.6364 7.27273 29.7455 5.89091 32.0728 5.89091C35.3455 5.89091 37.9637 8.58182 37.9637 11.7818C37.9637 13.6727 37.091 15.3455 35.6364 16.5091C34.1819 17.6727 32.291 18.0364 30.4728 17.5273C30.4 17.5273 30.2546 17.5273 30.1819 17.5273L27.2 17.9636L27.7819 16.5091C27.8546 16.2909 27.8546 16 27.6364 15.7818C26.0364 13.9636 25.6728 11.4909 26.691 9.38182Z" fill="#2F80ED"/>
    <path d="M29.7456 10.9818H34.3274C34.7638 10.9818 35.0547 10.6909 35.0547 10.2546C35.0547 9.81819 34.7638 9.52728 34.3274 9.52728H29.7456C29.3092 9.52728 29.0183 9.81819 29.0183 10.2546C29.0183 10.6909 29.3819 10.9818 29.7456 10.9818Z" fill="#2F80ED"/>
    <path d="M29.7456 14.4H34.3274C34.7638 14.4 35.0547 14.1091 35.0547 13.6728C35.0547 13.2364 34.7638 12.9455 34.3274 12.9455H29.7456C29.3092 12.9455 29.0183 13.2364 29.0183 13.6728C29.0183 14.1091 29.3819 14.4 29.7456 14.4Z" fill="#2F80ED"/>
    <path d="M46.4729 43.7818L42.7638 30.9091V3.49093C42.7638 1.96366 41.5274 0.727295 40.0001 0.727295H8.00011C6.47284 0.727295 5.23647 1.96366 5.23647 3.49093V30.9091L1.52738 43.7818C1.3092 44.6546 1.45465 45.5273 1.96374 46.1818C2.47284 46.9091 3.27284 47.2728 4.14556 47.2728H43.8547C44.7274 47.2728 45.5274 46.9091 46.0365 46.1818C46.5456 45.4546 46.7638 44.5818 46.4729 43.7818ZM6.69102 3.49093C6.69102 2.76366 7.27284 2.18184 8.00011 2.18184H40.0001C40.7274 2.18184 41.3092 2.76366 41.3092 3.49093V30.2546H26.6183V26.0364C26.6183 22.9818 24.1456 20.5091 21.091 20.5091H20.0001C19.7092 20.5091 19.491 20.6546 19.3456 20.9455L17.5274 24.8L15.7092 20.9455C15.5638 20.6546 15.3456 20.5091 15.0547 20.5091H13.9637C10.9092 20.5091 8.43647 22.9818 8.43647 26.0364V30.2546H6.69102V3.49093ZM9.96375 30.2546V26.0364C9.96375 23.7818 11.7819 21.9637 14.0365 21.9637H14.691L16.9456 26.7637C17.091 27.0546 17.3092 27.2 17.6001 27.2C17.891 27.2 18.1092 27.0546 18.2547 26.7637L20.5092 21.9637H21.1638C23.4183 21.9637 25.2365 23.7818 25.2365 26.0364V30.2546H9.96375ZM17.1638 45.8182L18.7638 39.7091H29.7456L30.9092 45.8182H17.1638ZM44.8729 45.3091C44.6547 45.6727 44.2183 45.8182 43.8547 45.8182H32.3638L31.0547 38.8364C30.9819 38.4728 30.691 38.2546 30.3274 38.2546H18.2547C17.891 38.2546 17.6001 38.4728 17.5274 38.7637L15.6365 45.8182H4.14556C3.7092 45.8182 3.34556 45.6 3.12738 45.3091C2.9092 44.9455 2.83647 44.5818 2.9092 44.1455L6.54556 31.6364H41.5274L45.1638 44.1455C45.2365 44.5818 45.1638 44.9455 44.8729 45.3091Z" fill="#2F80ED"/>
</svg>
