<svg width="48" height="48" viewBox="0 0 48 48" fill="none" xmlns="http://www.w3.org/2000/svg">
    <path d="M46.1817 45.8182H44.9454V43.6364C44.9454 43.2 44.6545 42.9091 44.2181 42.9091C43.7817 42.9091 43.4908 43.2 43.4908 43.6364V45.8182H39.6363V43.6364C39.6363 43.2 39.3454 42.9091 38.909 42.9091C38.4726 42.9091 38.1817 43.2 38.1817 43.6364V45.8182H34.3272V43.6364C34.3272 43.2 34.0363 42.9091 33.5999 42.9091C33.1635 42.9091 32.8726 43.2 32.8726 43.6364V45.8182H29.0181V43.6364C29.0181 43.2 28.7272 42.9091 28.2908 42.9091C27.8545 42.9091 27.5635 43.2 27.5635 43.6364V45.8182H23.709V43.6364C23.709 43.2 23.4181 42.9091 22.9817 42.9091C22.5454 42.9091 22.2545 43.2 22.2545 43.6364V45.8182H18.3999V43.6364C18.3999 43.2 18.109 42.9091 17.6726 42.9091C17.2363 42.9091 16.9454 43.2 16.9454 43.6364V45.8182H13.0908V43.6364C13.0908 43.2 12.7999 42.9091 12.3635 42.9091C11.9272 42.9091 11.6363 43.2 11.6363 43.6364V45.8182H7.78173V43.6364C7.78173 43.2 7.49082 42.9091 7.05446 42.9091C6.61809 42.9091 6.32718 43.2 6.32718 43.6364V45.8182H2.54537V41.1637H4.72718C5.16355 41.1637 5.45446 40.8727 5.45446 40.4364C5.45446 40 5.16355 39.7091 4.72718 39.7091H2.54537V35.8546H4.72718C5.16355 35.8546 5.45446 35.5637 5.45446 35.1273C5.45446 34.6909 5.16355 34.4 4.72718 34.4H2.54537V30.5455H4.72718C5.16355 30.5455 5.45446 30.2546 5.45446 29.8182C5.45446 29.3818 5.16355 29.0909 4.72718 29.0909H2.54537V25.2364H4.72718C5.16355 25.2364 5.45446 24.9455 5.45446 24.5091C5.45446 24.0728 5.16355 23.7818 4.72718 23.7818H2.54537V19.9273H4.72718C5.16355 19.9273 5.45446 19.6364 5.45446 19.2C5.45446 18.7637 5.16355 18.4727 4.72718 18.4727H2.54537V14.5455H4.72718C5.16355 14.5455 5.45446 14.2546 5.45446 13.8182C5.45446 13.3818 5.16355 13.0909 4.72718 13.0909H2.54537V9.23639H4.72718C5.16355 9.23639 5.45446 8.94548 5.45446 8.50911C5.45446 8.07275 5.16355 7.78184 4.72718 7.78184H2.54537V3.9273H4.72718C5.16355 3.9273 5.45446 3.63639 5.45446 3.20002C5.45446 2.76366 5.16355 2.47275 4.72718 2.47275H2.54537V1.45457C2.54537 1.0182 2.25446 0.727295 1.81809 0.727295C1.38173 0.727295 1.09082 1.0182 1.09082 1.45457V46.5455C1.09082 46.9818 1.38173 47.2728 1.81809 47.2728H46.2545C46.6908 47.2728 46.9817 46.9818 46.9817 46.5455C46.909 46.1091 46.6181 45.8182 46.1817 45.8182V45.8182Z" fill="#2F80ED"/>
    <path d="M45.8908 7.78186C45.818 7.41823 45.4544 7.12732 45.0908 7.12732L41.5271 7.56368C41.1635 7.63641 40.8726 8.00005 40.8726 8.36368C40.9453 8.72732 41.3089 9.01823 41.6726 9.01823L43.5635 8.80005L38.8362 15.2C36.2908 12.6546 32.2908 11.8546 28.8726 13.6728C25.818 15.2728 24.218 18.4728 24.3635 21.6728L17.7453 21.3091C17.4544 21.3091 17.1635 21.4546 17.018 21.7455L11.418 34.8364C11.2726 35.2001 11.418 35.6364 11.7817 35.7819C12.1453 35.9273 12.5817 35.7819 12.7271 35.4182L18.1817 22.7637L24.5817 23.1273C25.5999 27.4182 29.7453 30.2546 34.1817 29.5273L38.1817 37.091C39.1271 38.9091 41.2362 39.0546 42.4726 37.8182C43.3453 37.0182 43.418 35.6364 42.9089 34.6182L38.9089 26.9819C41.3817 24.4364 42.1089 20.5091 40.2908 17.1637C40.1453 16.8728 39.9271 16.5819 39.7817 16.291L44.6544 9.67277L44.8726 11.491C44.9453 11.8546 45.3089 12.1455 45.6726 12.1455C46.0362 12.0728 46.3271 11.7091 46.3271 11.3455L45.8908 7.78186ZM29.5999 14.9819C32.4362 13.5273 35.8544 14.1091 37.9635 16.4364L33.6726 22.1819L25.818 21.7455C25.5999 18.9819 26.9817 16.291 29.5999 14.9819V14.9819ZM41.6726 35.4182C41.9635 36.0001 41.7453 36.7273 41.1635 37.0182C40.5817 37.3091 39.8544 37.091 39.5635 36.5091L35.6362 29.1637C36.5089 28.8728 37.0908 28.5819 37.7453 28.0728L41.6726 35.4182ZM39.4908 23.2728C37.4544 29.7455 28.1453 29.8182 26.1089 23.2L33.9635 23.6364C34.1817 23.6364 34.4726 23.5637 34.618 23.3455L38.8362 17.6728C38.9089 17.7455 38.9817 17.891 38.9817 17.9637C39.9271 19.5637 40.0726 21.4546 39.4908 23.2728Z" fill="#2F80ED"/>
</svg>
