<svg width="40" height="40" viewBox="0 0 40 40" fill="none" xmlns="http://www.w3.org/2000/svg">
    <path d="M21.9999 13.5151C22.1817 13.6363 22.4242 13.5757 22.6666 13.4545C22.8484 13.3333 22.9696 13.0909 22.909 12.8485L22.5454 10.606L24.1817 9.03028C24.3635 8.84846 24.4242 8.60604 24.3635 8.42422C24.3029 8.1818 24.1211 8.06059 23.8787 7.99998L21.6363 7.69695L20.6666 5.69695C20.5454 5.51513 20.3635 5.33331 20.1211 5.33331C19.8787 5.33331 19.6969 5.45452 19.5757 5.69695L18.606 7.69695L16.3635 7.99998C16.1211 8.06059 15.9393 8.1818 15.8787 8.42422C15.8181 8.66665 15.8787 8.90907 16.0605 9.03028L17.6969 10.606L17.3332 12.8485C17.2726 13.0909 17.3938 13.3333 17.5757 13.4545C17.7575 13.5757 17.9999 13.5757 18.2423 13.5151L20.2423 12.4848L21.9999 13.5151ZM19.6969 11.2121L18.4847 11.8182L18.7272 10.4848C18.7878 10.303 18.6666 10.0606 18.5454 9.93937L17.6363 9.09089L18.9696 8.90907C19.1514 8.90907 19.3332 8.72725 19.4544 8.60604L20.0605 7.39392L20.6666 8.60604C20.7272 8.78786 20.909 8.90907 21.1514 8.90907L22.4848 9.09089L21.5151 9.99998C21.3938 10.1212 21.3332 10.3636 21.3332 10.5454L21.5757 11.8788L20.4241 11.2727C20.1211 11.1515 19.8787 11.1515 19.6969 11.2121Z" fill="#2F80ED"/>
    <path d="M38.7878 30.4848H27.4544V26.4242C27.4544 26.0606 27.212 25.8182 26.8484 25.8182H20.606V22.4848C23.8787 22.1212 26.8484 18.5454 28.5454 12.7879C31.9999 12.4848 34.6666 10.2424 34.6666 7.57575C34.6666 5.33332 32.8484 3.39393 30.1211 2.60605C30.1211 2.18181 30.1817 1.69696 30.1817 1.27272C30.1817 0.909081 29.9393 0.666656 29.5757 0.666656H10.4241C10.0605 0.666656 9.81808 0.909081 9.81808 1.27272V2.54544C7.15141 3.27272 5.27262 5.27272 5.27262 7.51514C5.27262 10.2424 7.93929 12.4242 11.3332 12.7273C13.0908 18.4848 15.9999 22.0606 19.3332 22.4848V25.8182H13.1514C12.7878 25.8182 12.5454 26.0606 12.5454 26.4242V30.4848H1.21202C0.848381 30.4848 0.605957 30.7273 0.605957 31.0909V38.7273C0.605957 39.0909 0.848381 39.3333 1.21202 39.3333H38.7878C39.1514 39.3333 39.3938 39.0909 39.3938 38.7273V31.0909C39.3938 30.7879 39.1514 30.4848 38.7878 30.4848ZM33.4544 7.57575C33.4544 9.51514 31.515 11.1515 28.909 11.5757C29.515 9.21211 29.9393 6.60605 30.0605 3.87878C32.1211 4.48484 33.4544 5.93938 33.4544 7.57575ZM6.54535 7.51514C6.54535 5.93938 7.87868 4.48484 9.87868 3.81817C10.0605 6.48484 10.4241 9.0909 11.0302 11.4545C8.48475 11.0909 6.54535 9.45454 6.54535 7.51514ZM12.4847 12C11.515 8.78787 11.0908 5.27272 11.0302 1.87878H28.909C28.8484 5.27272 28.4241 8.78787 27.4544 12.0606C25.8181 17.7576 22.909 21.3333 19.9393 21.3333C17.0302 21.3333 14.1211 17.7576 12.4847 12ZM38.1817 38.1212H1.81808V31.697H13.1514C13.515 31.697 13.7575 31.4545 13.7575 31.0909V27.0303H26.1817V31.0909C26.1817 31.4545 26.4241 31.697 26.7878 31.697H38.1817V38.1212Z" fill="#2F80ED"/>
</svg>
