<svg width="271" height="76" viewBox="0 0 271 76" fill="none" xmlns="http://www.w3.org/2000/svg">
    <path d="M74.0568 39V30.2727H75.1136V34.1591H79.767V30.2727H80.8238V39H79.767V35.0966H75.1136V39H74.0568Z" fill="#828282"/>
    <path d="M84.7294 39.1534C84.3146 39.1534 83.9382 39.0753 83.6001 38.919C83.262 38.76 82.9936 38.5313 82.7947 38.233C82.5958 37.9318 82.4964 37.5682 82.4964 37.1421C82.4964 36.7671 82.5703 36.4631 82.718 36.2301C82.8657 35.9943 83.0632 35.8097 83.3103 35.6761C83.5575 35.5426 83.8302 35.4432 84.1285 35.3778C84.4296 35.3097 84.7322 35.2557 85.0362 35.2159C85.4339 35.1648 85.7563 35.1264 86.0035 35.1009C86.2535 35.0725 86.4353 35.0256 86.549 34.9602C86.6654 34.8949 86.7237 34.7813 86.7237 34.6193V34.5852C86.7237 34.1648 86.6086 33.8381 86.3785 33.6051C86.1512 33.3722 85.8061 33.2557 85.343 33.2557C84.8629 33.2557 84.4865 33.3608 84.2137 33.571C83.941 33.7813 83.7492 34.0057 83.6384 34.2443L82.6839 33.9034C82.8544 33.5057 83.0816 33.196 83.3657 32.9744C83.6527 32.75 83.9652 32.5938 84.3032 32.5057C84.6441 32.4148 84.9794 32.3693 85.3089 32.3693C85.5191 32.3693 85.7606 32.3949 86.0333 32.446C86.3089 32.4943 86.5745 32.5952 86.8302 32.7486C87.0887 32.902 87.3032 33.1335 87.4737 33.4432C87.6441 33.7528 87.7294 34.1676 87.7294 34.6875V39H86.7237V38.1136H86.6725C86.6044 38.2557 86.4907 38.4077 86.3316 38.5696C86.1725 38.7315 85.9609 38.8693 85.6967 38.983C85.4325 39.0966 85.11 39.1534 84.7294 39.1534ZM84.8828 38.25C85.2805 38.25 85.6157 38.1719 85.8885 38.0156C86.164 37.8594 86.3714 37.6577 86.5106 37.4105C86.6527 37.1634 86.7237 36.9034 86.7237 36.6307V35.7102C86.6811 35.7614 86.5873 35.8082 86.4424 35.8509C86.3004 35.8906 86.1356 35.9261 85.9481 35.9574C85.7634 35.9858 85.5831 36.0114 85.4069 36.0341C85.2336 36.054 85.093 36.071 84.985 36.0852C84.7237 36.1193 84.4794 36.1747 84.2521 36.2514C84.0277 36.3253 83.8458 36.4375 83.7066 36.5881C83.5703 36.7358 83.5021 36.9375 83.5021 37.1932C83.5021 37.5426 83.6313 37.8068 83.8899 37.9858C84.1512 38.1619 84.4822 38.25 84.8828 38.25Z" fill="#828282"/>
    <path d="M88.6743 33.3921V32.4546H93.9925V33.3921H91.8448V39H90.8391V33.3921H88.6743Z" fill="#828282"/>
    <path d="M96.4652 37.5171L99.6186 32.4546H100.778V39H99.772V33.9375L96.6356 39H95.4595V32.4546H96.4652V37.5171Z" fill="#828282"/>
    <path d="M102.62 39V32.4546H105.296C106 32.4546 106.56 32.6136 106.975 32.9318C107.39 33.25 107.597 33.6705 107.597 34.1932C107.597 34.5909 107.479 34.8992 107.243 35.1179C107.007 35.3338 106.705 35.4801 106.336 35.5568C106.577 35.5909 106.811 35.6761 107.039 35.8125C107.269 35.9489 107.459 36.1364 107.61 36.375C107.76 36.6108 107.836 36.9006 107.836 37.2443C107.836 37.5796 107.75 37.8793 107.58 38.1435C107.409 38.4077 107.165 38.6165 106.847 38.7699C106.529 38.9233 106.148 39 105.705 39H102.62ZM103.574 38.0796H105.705C106.051 38.0796 106.323 37.9972 106.519 37.8324C106.715 37.6676 106.813 37.4432 106.813 37.1591C106.813 36.821 106.715 36.5554 106.519 36.3622C106.323 36.1662 106.051 36.0682 105.705 36.0682H103.574V38.0796ZM103.574 35.1989H105.296C105.566 35.1989 105.797 35.1619 105.99 35.0881C106.184 35.0114 106.331 34.9034 106.434 34.7642C106.539 34.6222 106.591 34.4546 106.591 34.2614C106.591 33.9858 106.476 33.7699 106.246 33.6136C106.016 33.4546 105.699 33.375 105.296 33.375H103.574V35.1989Z" fill="#828282"/>
    <path d="M113.739 35.2671V36.2046H110.125V35.2671H113.739ZM110.364 32.4546V39H109.358V32.4546H110.364ZM114.506 32.4546V39H113.5V32.4546H114.506Z" fill="#828282"/>
    <path d="M118.268 39.1534C117.854 39.1534 117.477 39.0753 117.139 38.919C116.801 38.76 116.533 38.5313 116.334 38.233C116.135 37.9318 116.035 37.5682 116.035 37.1421C116.035 36.7671 116.109 36.4631 116.257 36.2301C116.405 35.9943 116.602 35.8097 116.849 35.6761C117.097 35.5426 117.369 35.4432 117.668 35.3778C117.969 35.3097 118.271 35.2557 118.575 35.2159C118.973 35.1648 119.295 35.1264 119.543 35.1009C119.793 35.0725 119.974 35.0256 120.088 34.9602C120.205 34.8949 120.263 34.7813 120.263 34.6193V34.5852C120.263 34.1648 120.148 33.8381 119.918 33.6051C119.69 33.3722 119.345 33.2557 118.882 33.2557C118.402 33.2557 118.026 33.3608 117.753 33.571C117.48 33.7813 117.288 34.0057 117.178 34.2443L116.223 33.9034C116.393 33.5057 116.621 33.196 116.905 32.9744C117.192 32.75 117.504 32.5938 117.842 32.5057C118.183 32.4148 118.518 32.3693 118.848 32.3693C119.058 32.3693 119.3 32.3949 119.572 32.446C119.848 32.4943 120.114 32.5952 120.369 32.7486C120.628 32.902 120.842 33.1335 121.013 33.4432C121.183 33.7528 121.268 34.1676 121.268 34.6875V39H120.263V38.1136H120.212C120.143 38.2557 120.03 38.4077 119.871 38.5696C119.712 38.7315 119.5 38.8693 119.236 38.983C118.972 39.0966 118.649 39.1534 118.268 39.1534ZM118.422 38.25C118.82 38.25 119.155 38.1719 119.428 38.0156C119.703 37.8594 119.91 37.6577 120.05 37.4105C120.192 37.1634 120.263 36.9034 120.263 36.6307V35.7102C120.22 35.7614 120.126 35.8082 119.981 35.8509C119.839 35.8906 119.675 35.9261 119.487 35.9574C119.303 35.9858 119.122 36.0114 118.946 36.0341C118.773 36.054 118.632 36.071 118.524 36.0852C118.263 36.1193 118.018 36.1747 117.791 36.2514C117.567 36.3253 117.385 36.4375 117.246 36.5881C117.109 36.7358 117.041 36.9375 117.041 37.1932C117.041 37.5426 117.17 37.8068 117.429 37.9858C117.69 38.1619 118.021 38.25 118.422 38.25Z" fill="#828282"/>
    <path d="M127.042 39V33.375H125.303C124.911 33.375 124.603 33.4659 124.378 33.6477C124.154 33.8296 124.042 34.0796 124.042 34.3977C124.042 34.7102 124.142 34.956 124.344 35.135C124.549 35.3139 124.828 35.4034 125.184 35.4034H127.297V36.3409H125.184C124.74 36.3409 124.358 36.2628 124.037 36.1065C123.716 35.9503 123.469 35.7273 123.296 35.4375C123.122 35.1449 123.036 34.7983 123.036 34.3977C123.036 33.9943 123.127 33.6477 123.309 33.358C123.49 33.0682 123.75 32.8452 124.088 32.6889C124.429 32.5327 124.834 32.4546 125.303 32.4546H127.996V39H127.042ZM122.678 39L124.536 35.7443H125.627L123.769 39H122.678Z" fill="#828282"/>
    <path d="M133.217 41.4546V32.4546H134.189V33.4943H134.308C134.382 33.3807 134.484 33.2358 134.615 33.0597C134.749 32.8807 134.939 32.7216 135.186 32.5824C135.436 32.4403 135.774 32.3693 136.2 32.3693C136.751 32.3693 137.237 32.5071 137.658 32.7827C138.078 33.0582 138.406 33.4489 138.642 33.9546C138.878 34.4602 138.996 35.0568 138.996 35.7443C138.996 36.4375 138.878 37.0384 138.642 37.5469C138.406 38.0526 138.079 38.4446 137.662 38.723C137.244 38.9986 136.763 39.1364 136.217 39.1364C135.797 39.1364 135.46 39.0668 135.207 38.9276C134.954 38.7855 134.76 38.625 134.624 38.446C134.487 38.2642 134.382 38.1136 134.308 37.9943H134.223V41.4546H133.217ZM134.206 35.7273C134.206 36.2216 134.278 36.6577 134.423 37.0355C134.568 37.4105 134.78 37.7046 135.058 37.9176C135.337 38.1278 135.678 38.233 136.081 38.233C136.501 38.233 136.852 38.1222 137.133 37.9006C137.418 37.6761 137.631 37.375 137.773 36.9972C137.918 36.6165 137.99 36.1932 137.99 35.7273C137.99 35.2671 137.919 34.8523 137.777 34.483C137.638 34.1108 137.426 33.8168 137.142 33.6009C136.861 33.3821 136.507 33.2727 136.081 33.2727C135.672 33.2727 135.328 33.3764 135.05 33.5838C134.771 33.7884 134.561 34.0753 134.419 34.4446C134.277 34.8111 134.206 35.2386 134.206 35.7273Z" fill="#828282"/>
    <path d="M143.274 39.1364C142.643 39.1364 142.099 38.9972 141.642 38.7188C141.187 38.4375 140.837 38.0455 140.589 37.5426C140.345 37.0369 140.223 36.4489 140.223 35.7784C140.223 35.108 140.345 34.5171 140.589 34.0057C140.837 33.4915 141.18 33.0909 141.621 32.804C142.064 32.5142 142.581 32.3693 143.172 32.3693C143.513 32.3693 143.849 32.4261 144.182 32.5398C144.514 32.6534 144.817 32.8381 145.089 33.0938C145.362 33.3466 145.579 33.6818 145.741 34.0994C145.903 34.5171 145.984 35.0313 145.984 35.6421V36.0682H140.939V35.1989H144.962C144.962 34.8296 144.888 34.5 144.74 34.2102C144.595 33.9205 144.388 33.6918 144.118 33.5242C143.851 33.3565 143.535 33.2727 143.172 33.2727C142.771 33.2727 142.425 33.3722 142.132 33.571C141.842 33.7671 141.619 34.0227 141.463 34.3381C141.307 34.6534 141.229 34.9915 141.229 35.3523V35.9318C141.229 36.4261 141.314 36.8452 141.484 37.1889C141.658 37.5298 141.898 37.7898 142.204 37.9688C142.511 38.1449 142.868 38.233 143.274 38.233C143.538 38.233 143.777 38.196 143.99 38.1222C144.206 38.0455 144.392 37.9318 144.548 37.7813C144.704 37.6278 144.825 37.4375 144.91 37.2102L145.882 37.483C145.78 37.8125 145.608 38.1023 145.366 38.3523C145.125 38.5994 144.827 38.7926 144.472 38.9318C144.116 39.0682 143.717 39.1364 143.274 39.1364Z" fill="#828282"/>
    <path d="M147.514 39V32.4546H148.52V35.3011H149.185L151.537 32.4546H152.832L150.19 35.608L152.866 39H151.571L149.423 36.2386H148.52V39H147.514Z" fill="#828282"/>
    <path d="M153.38 39V38.0625H153.619C153.815 38.0625 153.978 38.0242 154.109 37.9475C154.239 37.8679 154.344 37.7301 154.424 37.5341C154.506 37.3352 154.569 37.0597 154.611 36.7074C154.657 36.3523 154.69 35.9006 154.709 35.3523L154.829 32.4546H159.192V39H158.187V33.3921H155.783L155.681 35.7273C155.658 36.2642 155.61 36.7372 155.536 37.1463C155.465 37.5526 155.356 37.8935 155.208 38.169C155.063 38.4446 154.87 38.652 154.629 38.7912C154.387 38.9304 154.084 39 153.721 39H153.38Z" fill="#828282"/>
    <path d="M162.964 39.1534C162.549 39.1534 162.173 39.0753 161.834 38.919C161.496 38.76 161.228 38.5313 161.029 38.233C160.83 37.9318 160.731 37.5682 160.731 37.1421C160.731 36.7671 160.805 36.4631 160.952 36.2301C161.1 35.9943 161.298 35.8097 161.545 35.6761C161.792 35.5426 162.065 35.4432 162.363 35.3778C162.664 35.3097 162.967 35.2557 163.271 35.2159C163.668 35.1648 163.991 35.1264 164.238 35.1009C164.488 35.0725 164.67 35.0256 164.783 34.9602C164.9 34.8949 164.958 34.7813 164.958 34.6193V34.5852C164.958 34.1648 164.843 33.8381 164.613 33.6051C164.386 33.3722 164.04 33.2557 163.577 33.2557C163.097 33.2557 162.721 33.3608 162.448 33.571C162.175 33.7813 161.984 34.0057 161.873 34.2443L160.918 33.9034C161.089 33.5057 161.316 33.196 161.6 32.9744C161.887 32.75 162.2 32.5938 162.538 32.5057C162.879 32.4148 163.214 32.3693 163.543 32.3693C163.754 32.3693 163.995 32.3949 164.268 32.446C164.543 32.4943 164.809 32.5952 165.065 32.7486C165.323 32.902 165.538 33.1335 165.708 33.4432C165.879 33.7528 165.964 34.1676 165.964 34.6875V39H164.958V38.1136H164.907C164.839 38.2557 164.725 38.4077 164.566 38.5696C164.407 38.7315 164.195 38.8693 163.931 38.983C163.667 39.0966 163.344 39.1534 162.964 39.1534ZM163.117 38.25C163.515 38.25 163.85 38.1719 164.123 38.0156C164.398 37.8594 164.606 37.6577 164.745 37.4105C164.887 37.1634 164.958 36.9034 164.958 36.6307V35.7102C164.915 35.7614 164.822 35.8082 164.677 35.8509C164.535 35.8906 164.37 35.9261 164.182 35.9574C163.998 35.9858 163.817 36.0114 163.641 36.0341C163.468 36.054 163.327 36.071 163.219 36.0852C162.958 36.1193 162.714 36.1747 162.486 36.2514C162.262 36.3253 162.08 36.4375 161.941 36.5881C161.805 36.7358 161.736 36.9375 161.736 37.1932C161.736 37.5426 161.866 37.8068 162.124 37.9858C162.386 38.1619 162.717 38.25 163.117 38.25Z" fill="#828282"/>
    <path d="M171.379 37.6364L173.663 32.4546H174.618L171.788 39H170.97L168.191 32.4546H169.129L171.379 37.6364ZM168.805 32.4546V39H167.799V32.4546H168.805ZM173.953 39V32.4546H174.958V39H173.953Z" fill="#828282"/>
    <path d="M178.725 39.1534C178.311 39.1534 177.934 39.0753 177.596 38.919C177.258 38.76 176.99 38.5313 176.791 38.233C176.592 37.9318 176.493 37.5682 176.493 37.1421C176.493 36.7671 176.566 36.4631 176.714 36.2301C176.862 35.9943 177.059 35.8097 177.306 35.6761C177.554 35.5426 177.826 35.4432 178.125 35.3778C178.426 35.3097 178.728 35.2557 179.032 35.2159C179.43 35.1648 179.752 35.1264 180 35.1009C180.25 35.0725 180.431 35.0256 180.545 34.9602C180.662 34.8949 180.72 34.7813 180.72 34.6193V34.5852C180.72 34.1648 180.605 33.8381 180.375 33.6051C180.147 33.3722 179.802 33.2557 179.339 33.2557C178.859 33.2557 178.483 33.3608 178.21 33.571C177.937 33.7813 177.745 34.0057 177.635 34.2443L176.68 33.9034C176.85 33.5057 177.078 33.196 177.362 32.9744C177.649 32.75 177.961 32.5938 178.299 32.5057C178.64 32.4148 178.975 32.3693 179.305 32.3693C179.515 32.3693 179.757 32.3949 180.029 32.446C180.305 32.4943 180.571 32.5952 180.826 32.7486C181.085 32.902 181.299 33.1335 181.47 33.4432C181.64 33.7528 181.725 34.1676 181.725 34.6875V39H180.72V38.1136H180.669C180.6 38.2557 180.487 38.4077 180.328 38.5696C180.169 38.7315 179.957 38.8693 179.693 38.983C179.429 39.0966 179.106 39.1534 178.725 39.1534ZM178.879 38.25C179.277 38.25 179.612 38.1719 179.885 38.0156C180.16 37.8594 180.368 37.6577 180.507 37.4105C180.649 37.1634 180.72 36.9034 180.72 36.6307V35.7102C180.677 35.7614 180.583 35.8082 180.439 35.8509C180.296 35.8906 180.132 35.9261 179.944 35.9574C179.76 35.9858 179.579 36.0114 179.403 36.0341C179.23 36.054 179.089 36.071 178.981 36.0852C178.72 36.1193 178.475 36.1747 178.248 36.2514C178.024 36.3253 177.842 36.4375 177.703 36.5881C177.566 36.7358 177.498 36.9375 177.498 37.1932C177.498 37.5426 177.627 37.8068 177.886 37.9858C178.147 38.1619 178.478 38.25 178.879 38.25Z" fill="#828282"/>
    <path d="M73.9204 53V46.4546H76.5965C77.3011 46.4546 77.8608 46.6136 78.2755 46.9318C78.6903 47.25 78.8977 47.6705 78.8977 48.1932C78.8977 48.5909 78.7798 48.8992 78.544 49.1179C78.3082 49.3338 78.0056 49.4801 77.6363 49.5568C77.8778 49.5909 78.1122 49.6761 78.3394 49.8125C78.5696 49.9489 78.7599 50.1364 78.9105 50.375C79.061 50.6108 79.1363 50.9006 79.1363 51.2443C79.1363 51.5796 79.0511 51.8793 78.8806 52.1435C78.7102 52.4077 78.4659 52.6165 78.1477 52.7699C77.8295 52.9233 77.4488 53 77.0056 53H73.9204ZM74.875 52.0796H77.0056C77.3522 52.0796 77.6235 51.9972 77.8196 51.8324C78.0156 51.6676 78.1136 51.4432 78.1136 51.1591C78.1136 50.821 78.0156 50.5554 77.8196 50.3622C77.6235 50.1662 77.3522 50.0682 77.0056 50.0682H74.875V52.0796ZM74.875 49.1989H76.5965C76.8664 49.1989 77.098 49.1619 77.2911 49.0881C77.4843 49.0114 77.6321 48.9034 77.7343 48.7642C77.8394 48.6222 77.892 48.4546 77.892 48.2614C77.892 47.9858 77.7769 47.7699 77.5468 47.6136C77.3167 47.4546 77 47.375 76.5965 47.375H74.875V49.1989Z" fill="#828282"/>
    <path d="M90.1019 53H89.0451V45.2102H87.1871C86.7155 45.2102 86.3362 45.2827 86.0493 45.4276C85.7624 45.5696 85.5536 45.7713 85.4229 46.0327C85.2922 46.294 85.2269 46.5994 85.2269 46.9489C85.2269 47.2983 85.2908 47.5994 85.4186 47.8523C85.5493 48.1023 85.7567 48.2955 86.0408 48.4318C86.3277 48.5682 86.7041 48.6364 87.1701 48.6364H89.5223V49.5909H87.136C86.4598 49.5909 85.9044 49.4787 85.4698 49.2543C85.0351 49.027 84.7127 48.7145 84.5024 48.3168C84.2922 47.919 84.1871 47.4631 84.1871 46.9489C84.1871 46.4347 84.2922 45.9759 84.5024 45.5725C84.7127 45.169 85.0365 44.8523 85.474 44.6222C85.9115 44.3892 86.4712 44.2727 87.153 44.2727H90.1019V53ZM85.9939 49.0796H87.1871L85.0735 53H83.8462L85.9939 49.0796Z" fill="#828282"/>
    <path d="M96.4652 49.2671V50.2046H92.8515V49.2671H96.4652ZM93.0902 46.4546V53H92.0845V46.4546H93.0902ZM97.2322 46.4546V53H96.2265V46.4546H97.2322Z" fill="#828282"/>
    <path d="M98.37 54.875V52.0625H98.9154C99.049 51.9233 99.164 51.7727 99.2606 51.6108C99.3572 51.4489 99.441 51.2571 99.512 51.0355C99.5859 50.8111 99.6484 50.5384 99.6995 50.2173C99.7507 49.8935 99.7961 49.5028 99.8359 49.0455L100.057 46.4546H104.217V52.0625H105.222V54.875H104.217V53H99.3757V54.875H98.37ZM100.057 52.0625H103.211V47.3921H100.995L100.825 49.0455C100.754 49.7301 100.665 50.3281 100.56 50.8395C100.455 51.3509 100.288 51.7585 100.057 52.0625Z" fill="#828282"/>
    <path d="M109.301 53.1364C108.671 53.1364 108.127 52.9972 107.669 52.7188C107.215 52.4375 106.864 52.0455 106.617 51.5426C106.372 51.0369 106.25 50.4489 106.25 49.7784C106.25 49.108 106.372 48.5171 106.617 48.0057C106.864 47.4915 107.208 47.0909 107.648 46.804C108.091 46.5142 108.608 46.3693 109.199 46.3693C109.54 46.3693 109.877 46.4261 110.209 46.5398C110.542 46.6534 110.844 46.8381 111.117 47.0938C111.39 47.3466 111.607 47.6818 111.769 48.0994C111.931 48.5171 112.012 49.0313 112.012 49.6421V50.0682H106.966V49.1989H110.989C110.989 48.8296 110.915 48.5 110.767 48.2102C110.622 47.9205 110.415 47.6918 110.145 47.5242C109.878 47.3565 109.563 47.2727 109.199 47.2727C108.799 47.2727 108.452 47.3722 108.159 47.571C107.87 47.7671 107.647 48.0227 107.49 48.3381C107.334 48.6534 107.256 48.9915 107.256 49.3523V49.9318C107.256 50.4261 107.341 50.8452 107.512 51.1889C107.685 51.5298 107.925 51.7898 108.232 51.9688C108.539 52.1449 108.895 52.233 109.301 52.233C109.566 52.233 109.804 52.196 110.017 52.1222C110.233 52.0455 110.419 51.9318 110.576 51.7813C110.732 51.6278 110.853 51.4375 110.938 51.2102L111.909 51.483C111.807 51.8125 111.635 52.1023 111.394 52.3523C111.152 52.5994 110.854 52.7926 110.499 52.9318C110.144 53.0682 109.745 53.1364 109.301 53.1364Z" fill="#828282"/>
    <path d="M113.542 53V46.4546H114.547V49.3011H115.212L117.564 46.4546H118.86L116.218 49.608L118.894 53H117.598L115.451 50.2386H114.547V53H113.542Z" fill="#828282"/>
    <path d="M122.376 53.1364C121.763 53.1364 121.234 52.9915 120.791 52.7017C120.348 52.4119 120.007 52.0128 119.768 51.5043C119.53 50.9957 119.41 50.4148 119.41 49.7614C119.41 49.0966 119.533 48.51 119.777 48.0014C120.024 47.4901 120.368 47.0909 120.808 46.804C121.251 46.5142 121.768 46.3693 122.359 46.3693C122.82 46.3693 123.234 46.4546 123.604 46.625C123.973 46.7955 124.276 47.0341 124.511 47.3409C124.747 47.6477 124.893 48.0057 124.95 48.4148H123.945C123.868 48.1165 123.697 47.8523 123.433 47.6222C123.172 47.3892 122.82 47.2727 122.376 47.2727C121.984 47.2727 121.641 47.375 121.345 47.5796C121.053 47.7813 120.824 48.0668 120.659 48.4361C120.497 48.8026 120.416 49.233 120.416 49.7273C120.416 50.233 120.496 50.6733 120.655 51.0483C120.817 51.4233 121.044 51.7145 121.337 51.9219C121.632 52.1293 121.979 52.233 122.376 52.233C122.638 52.233 122.875 52.1875 123.088 52.0966C123.301 52.0057 123.481 51.875 123.629 51.7046C123.777 51.5341 123.882 51.3296 123.945 51.0909H124.95C124.893 51.4773 124.753 51.8253 124.528 52.135C124.307 52.4418 124.013 52.6861 123.646 52.8679C123.283 53.0469 122.859 53.1364 122.376 53.1364Z" fill="#828282"/>
    <path d="M135.062 53L132.062 48.9943H130.989V53H129.932V44.2727H130.989V48.0568H131.449L134.943 44.2727H136.205L132.676 48.108L136.324 53H135.062Z" fill="#828282"/>
    <path d="M138.423 48.8239H140.298C141.065 48.8239 141.651 49.0185 142.057 49.4077C142.464 49.7969 142.667 50.2898 142.667 50.8864C142.667 51.2784 142.576 51.635 142.394 51.956C142.212 52.2742 141.945 52.5284 141.593 52.7188C141.241 52.9063 140.809 53 140.298 53H137.553V46.4546H138.559V52.0625H140.298C140.695 52.0625 141.022 51.9574 141.278 51.7472C141.533 51.5369 141.661 51.2671 141.661 50.9375C141.661 50.5909 141.533 50.3082 141.278 50.0895C141.022 49.8707 140.695 49.7614 140.298 49.7614H138.423V48.8239Z" fill="#828282"/>
    <path d="M147.334 49.3182V50.2557H143.874V49.3182H147.334ZM144.726 46.4546V53H143.72V46.4546H144.726ZM149.345 53.1364C148.755 53.1364 148.236 52.9957 147.79 52.7145C147.347 52.4332 147 52.0398 146.75 51.5341C146.503 51.0284 146.38 50.4375 146.38 49.7614C146.38 49.0796 146.503 48.4844 146.75 47.9759C147 47.4673 147.347 47.0725 147.79 46.7912C148.236 46.51 148.755 46.3693 149.345 46.3693C149.936 46.3693 150.453 46.51 150.897 46.7912C151.343 47.0725 151.689 47.4673 151.936 47.9759C152.186 48.4844 152.311 49.0796 152.311 49.7614C152.311 50.4375 152.186 51.0284 151.936 51.5341C151.689 52.0398 151.343 52.4332 150.897 52.7145C150.453 52.9957 149.936 53.1364 149.345 53.1364ZM149.345 52.233C149.794 52.233 150.164 52.1179 150.453 51.8878C150.743 51.6577 150.958 51.3551 151.097 50.9801C151.236 50.6051 151.306 50.1989 151.306 49.7614C151.306 49.3239 151.236 48.9162 151.097 48.5384C150.958 48.1605 150.743 47.8551 150.453 47.6222C150.164 47.3892 149.794 47.2727 149.345 47.2727C148.897 47.2727 148.527 47.3892 148.238 47.6222C147.948 47.8551 147.733 48.1605 147.594 48.5384C147.455 48.9162 147.385 49.3239 147.385 49.7614C147.385 50.1989 147.455 50.6051 147.594 50.9801C147.733 51.3551 147.948 51.6577 148.238 51.8878C148.527 52.1179 148.897 52.233 149.345 52.233Z" fill="#828282"/>
    <path d="M156.624 54.875V52.0625H157.169C157.303 51.9233 157.418 51.7727 157.515 51.6108C157.611 51.4489 157.695 51.2571 157.766 51.0355C157.84 50.8111 157.902 50.5384 157.953 50.2173C158.005 49.8935 158.05 49.5028 158.09 49.0455L158.311 46.4546H162.47V52.0625H163.476V54.875H162.47V53H157.63V54.875H156.624ZM158.311 52.0625H161.465V47.3921H159.249L159.078 49.0455C159.007 49.7301 158.919 50.3281 158.814 50.8395C158.709 51.3509 158.542 51.7585 158.311 52.0625Z" fill="#828282"/>
    <path d="M164.231 53V52.0625H164.47C164.666 52.0625 164.829 52.0242 164.96 51.9475C165.091 51.8679 165.196 51.7301 165.276 51.5341C165.358 51.3352 165.42 51.0597 165.463 50.7074C165.508 50.3523 165.541 49.9006 165.561 49.3523L165.68 46.4546H170.044V53H169.038V47.3921H166.635L166.533 49.7273C166.51 50.2642 166.462 50.7372 166.388 51.1463C166.317 51.5526 166.207 51.8935 166.06 52.169C165.915 52.4446 165.722 52.652 165.48 52.7912C165.239 52.9304 164.936 53 164.572 53H164.231Z" fill="#828282"/>
    <path d="M175.827 53V47.375H174.088C173.696 47.375 173.388 47.4659 173.163 47.6477C172.939 47.8296 172.827 48.0796 172.827 48.3977C172.827 48.7102 172.928 48.956 173.129 49.135C173.334 49.3139 173.614 49.4034 173.969 49.4034H176.082V50.3409H173.969C173.526 50.3409 173.143 50.2628 172.822 50.1065C172.501 49.9503 172.254 49.7273 172.081 49.4375C171.908 49.1449 171.821 48.7983 171.821 48.3977C171.821 47.9943 171.912 47.6477 172.094 47.358C172.276 47.0682 172.535 46.8452 172.874 46.6889C173.214 46.5327 173.619 46.4546 174.088 46.4546H176.781V53H175.827ZM171.463 53L173.321 49.7443H174.412L172.554 53H171.463Z" fill="#828282"/>
    <path d="M181.627 47.3921V46.4546H186.946V47.3921H184.798V53H183.792V47.3921H181.627Z" fill="#828282"/>
    <path d="M188.413 53V46.4546H191.089C191.793 46.4546 192.353 46.6136 192.768 46.9318C193.182 47.25 193.39 47.6705 193.39 48.1932C193.39 48.5909 193.272 48.8992 193.036 49.1179C192.8 49.3338 192.498 49.4801 192.129 49.5568C192.37 49.5909 192.604 49.6761 192.832 49.8125C193.062 49.9489 193.252 50.1364 193.403 50.375C193.553 50.6108 193.629 50.9006 193.629 51.2443C193.629 51.5796 193.543 51.8793 193.373 52.1435C193.202 52.4077 192.958 52.6165 192.64 52.7699C192.322 52.9233 191.941 53 191.498 53H188.413ZM189.367 52.0796H191.498C191.844 52.0796 192.116 51.9972 192.312 51.8324C192.508 51.6676 192.606 51.4432 192.606 51.1591C192.606 50.821 192.508 50.5554 192.312 50.3622C192.116 50.1662 191.844 50.0682 191.498 50.0682H189.367V52.0796ZM189.367 49.1989H191.089C191.359 49.1989 191.59 49.1619 191.783 49.0881C191.977 49.0114 192.124 48.9034 192.227 48.7642C192.332 48.6222 192.384 48.4546 192.384 48.2614C192.384 47.9858 192.269 47.7699 192.039 47.6136C191.809 47.4546 191.492 47.375 191.089 47.375H189.367V49.1989Z" fill="#828282"/>
    <path d="M197.81 53.1364C197.219 53.1364 196.701 52.9957 196.255 52.7145C195.811 52.4332 195.465 52.0398 195.215 51.5341C194.968 51.0284 194.844 50.4375 194.844 49.7614C194.844 49.0796 194.968 48.4844 195.215 47.9759C195.465 47.4673 195.811 47.0725 196.255 46.7912C196.701 46.51 197.219 46.3693 197.81 46.3693C198.401 46.3693 198.918 46.51 199.361 46.7912C199.807 47.0725 200.154 47.4673 200.401 47.9759C200.651 48.4844 200.776 49.0796 200.776 49.7614C200.776 50.4375 200.651 51.0284 200.401 51.5341C200.154 52.0398 199.807 52.4332 199.361 52.7145C198.918 52.9957 198.401 53.1364 197.81 53.1364ZM197.81 52.233C198.259 52.233 198.628 52.1179 198.918 51.8878C199.208 51.6577 199.422 51.3551 199.561 50.9801C199.701 50.6051 199.77 50.1989 199.77 49.7614C199.77 49.3239 199.701 48.9162 199.561 48.5384C199.422 48.1605 199.208 47.8551 198.918 47.6222C198.628 47.3892 198.259 47.2727 197.81 47.2727C197.361 47.2727 196.992 47.3892 196.702 47.6222C196.412 47.8551 196.198 48.1605 196.059 48.5384C195.919 48.9162 195.85 49.3239 195.85 49.7614C195.85 50.1989 195.919 50.6051 196.059 50.9801C196.198 51.3551 196.412 51.6577 196.702 51.8878C196.992 52.1179 197.361 52.233 197.81 52.233Z" fill="#828282"/>
    <path d="M205.055 53.1364C204.425 53.1364 203.881 52.9972 203.423 52.7188C202.969 52.4375 202.618 52.0455 202.371 51.5426C202.126 51.0369 202.004 50.4489 202.004 49.7784C202.004 49.108 202.126 48.5171 202.371 48.0057C202.618 47.4915 202.962 47.0909 203.402 46.804C203.845 46.5142 204.362 46.3693 204.953 46.3693C205.294 46.3693 205.631 46.4261 205.963 46.5398C206.295 46.6534 206.598 46.8381 206.871 47.0938C207.143 47.3466 207.361 47.6818 207.523 48.0994C207.685 48.5171 207.766 49.0313 207.766 49.6421V50.0682H202.72V49.1989H206.743C206.743 48.8296 206.669 48.5 206.521 48.2102C206.376 47.9205 206.169 47.6918 205.899 47.5242C205.632 47.3565 205.317 47.2727 204.953 47.2727C204.553 47.2727 204.206 47.3722 203.913 47.571C203.624 47.7671 203.401 48.0227 203.244 48.3381C203.088 48.6534 203.01 48.9915 203.01 49.3523V49.9318C203.01 50.4261 203.095 50.8452 203.266 51.1889C203.439 51.5298 203.679 51.7898 203.986 51.9688C204.293 52.1449 204.649 52.233 205.055 52.233C205.32 52.233 205.558 52.196 205.771 52.1222C205.987 52.0455 206.173 51.9318 206.329 51.7813C206.486 51.6278 206.606 51.4375 206.692 51.2102L207.663 51.483C207.561 51.8125 207.389 52.1023 207.148 52.3523C206.906 52.5994 206.608 52.7926 206.253 52.9318C205.898 53.0682 205.499 53.1364 205.055 53.1364Z" fill="#828282"/>
    <path d="M213.335 46.4546V47.3921H210.301V53H209.295V46.4546H213.335Z" fill="#828282"/>
    <path d="M217.122 53.1364C216.532 53.1364 216.013 52.9957 215.567 52.7145C215.124 52.4332 214.777 52.0398 214.527 51.5341C214.28 51.0284 214.157 50.4375 214.157 49.7614C214.157 49.0796 214.28 48.4844 214.527 47.9759C214.777 47.4673 215.124 47.0725 215.567 46.7912C216.013 46.51 216.532 46.3693 217.122 46.3693C217.713 46.3693 218.23 46.51 218.674 46.7912C219.12 47.0725 219.466 47.4673 219.713 47.9759C219.963 48.4844 220.088 49.0796 220.088 49.7614C220.088 50.4375 219.963 51.0284 219.713 51.5341C219.466 52.0398 219.12 52.4332 218.674 52.7145C218.23 52.9957 217.713 53.1364 217.122 53.1364ZM217.122 52.233C217.571 52.233 217.941 52.1179 218.23 51.8878C218.52 51.6577 218.735 51.3551 218.874 50.9801C219.013 50.6051 219.083 50.1989 219.083 49.7614C219.083 49.3239 219.013 48.9162 218.874 48.5384C218.735 48.1605 218.52 47.8551 218.23 47.6222C217.941 47.3892 217.571 47.2727 217.122 47.2727C216.674 47.2727 216.304 47.3892 216.015 47.6222C215.725 47.8551 215.51 48.1605 215.371 48.5384C215.232 48.9162 215.162 49.3239 215.162 49.7614C215.162 50.1989 215.232 50.6051 215.371 50.9801C215.51 51.3551 215.725 51.6577 216.015 51.8878C216.304 52.1179 216.674 52.233 217.122 52.233Z" fill="#828282"/>
    <path d="M229.856 44L230.368 44.6136C230.169 44.8068 229.939 44.9418 229.678 45.0185C229.416 45.0952 229.121 45.1421 228.791 45.1591C228.462 45.1761 228.095 45.1932 227.692 45.2102C227.237 45.2273 226.861 45.3381 226.562 45.5426C226.264 45.7472 226.034 46.0426 225.872 46.429C225.71 46.8153 225.606 47.2898 225.561 47.8523H225.646C225.868 47.4432 226.175 47.1421 226.567 46.9489C226.959 46.7557 227.379 46.6591 227.828 46.6591C228.339 46.6591 228.8 46.7784 229.209 47.0171C229.618 47.2557 229.942 47.6094 230.18 48.0781C230.419 48.5469 230.538 49.125 230.538 49.8125C230.538 50.4972 230.416 51.0881 230.172 51.5852C229.93 52.0824 229.591 52.4659 229.153 52.7358C228.719 53.0028 228.209 53.1364 227.624 53.1364C227.038 53.1364 226.526 52.9986 226.085 52.723C225.645 52.4446 225.303 52.0327 225.058 51.4872C224.814 50.9389 224.692 50.2614 224.692 49.4546V48.7557C224.692 47.2983 224.939 46.1932 225.433 45.4403C225.93 44.6875 226.678 44.2983 227.675 44.2727C228.027 44.2614 228.341 44.2585 228.616 44.2642C228.892 44.2699 229.132 44.2571 229.337 44.2259C229.541 44.1946 229.714 44.1193 229.856 44ZM227.624 52.233C228.018 52.233 228.358 52.1335 228.642 51.9347C228.929 51.7358 229.149 51.456 229.303 51.0952C229.456 50.7315 229.533 50.304 229.533 49.8125C229.533 49.3352 229.454 48.929 229.298 48.5938C229.145 48.2585 228.925 48.0028 228.638 47.8267C228.351 47.6506 228.007 47.5625 227.606 47.5625C227.314 47.5625 227.051 47.6122 226.818 47.7117C226.585 47.8111 226.386 47.9574 226.222 48.1506C226.057 48.3438 225.929 48.5796 225.838 48.858C225.75 49.1364 225.703 49.4546 225.697 49.8125C225.697 50.5455 225.869 51.1321 226.213 51.5725C226.557 52.0128 227.027 52.233 227.624 52.233Z" fill="#828282"/>
    <path d="M233.082 51.5171L236.236 46.4546H237.395V53H236.389V47.9375L233.253 53H232.077V46.4546H233.082V51.5171Z" fill="#828282"/>
    <path d="M238.828 51.3296H239.902C239.924 51.625 240.058 51.8494 240.302 52.0028C240.549 52.1563 240.87 52.233 241.265 52.233C241.669 52.233 242.014 52.1506 242.301 51.9858C242.588 51.8182 242.731 51.5483 242.731 51.1761C242.731 50.9574 242.677 50.7671 242.569 50.6051C242.461 50.4403 242.309 50.3125 242.113 50.2216C241.917 50.1307 241.686 50.0852 241.419 50.0852H240.294V49.1818H241.419C241.819 49.1818 242.115 49.0909 242.305 48.9091C242.498 48.7273 242.595 48.5 242.595 48.2273C242.595 47.9347 242.491 47.7003 242.284 47.5242C242.076 47.3452 241.782 47.2557 241.402 47.2557C241.018 47.2557 240.698 47.3423 240.443 47.5156C240.187 47.6861 240.052 47.9063 240.038 48.1761H238.981C238.993 47.8239 239.1 47.5128 239.305 47.2429C239.51 46.9702 239.788 46.7571 240.14 46.6037C240.493 46.4475 240.896 46.3693 241.35 46.3693C241.811 46.3693 242.21 46.4503 242.548 46.6122C242.889 46.7713 243.152 46.9886 243.336 47.2642C243.524 47.5369 243.617 47.8466 243.617 48.1932C243.617 48.5625 243.514 48.8608 243.306 49.0881C243.099 49.3153 242.839 49.4773 242.527 49.5739V49.6421C242.774 49.6591 242.988 49.7386 243.17 49.8807C243.355 50.0199 243.498 50.2031 243.6 50.4304C243.703 50.6548 243.754 50.9034 243.754 51.1761C243.754 51.5739 243.647 51.9205 243.434 52.2159C243.221 52.5085 242.929 52.7358 242.556 52.8977C242.184 53.0568 241.76 53.1364 241.282 53.1364C240.819 53.1364 240.404 53.0611 240.038 52.9105C239.671 52.7571 239.38 52.5455 239.164 52.2756C238.951 52.0028 238.839 51.6875 238.828 51.3296Z" fill="#828282"/>
    <path d="M249.547 49.2671V50.2046H245.934V49.2671H249.547ZM246.172 46.4546V53H245.167V46.4546H246.172ZM250.314 46.4546V53H249.309V46.4546H250.314Z" fill="#828282"/>
    <path d="M254.895 53.1364C254.265 53.1364 253.72 52.9972 253.263 52.7188C252.809 52.4375 252.458 52.0455 252.211 51.5426C251.966 51.0369 251.844 50.4489 251.844 49.7784C251.844 49.108 251.966 48.5171 252.211 48.0057C252.458 47.4915 252.801 47.0909 253.242 46.804C253.685 46.5142 254.202 46.3693 254.793 46.3693C255.134 46.3693 255.47 46.4261 255.803 46.5398C256.135 46.6534 256.438 46.8381 256.711 47.0938C256.983 47.3466 257.201 47.6818 257.363 48.0994C257.524 48.5171 257.605 49.0313 257.605 49.6421V50.0682H252.56V49.1989H256.583C256.583 48.8296 256.509 48.5 256.361 48.2102C256.216 47.9205 256.009 47.6918 255.739 47.5242C255.472 47.3565 255.157 47.2727 254.793 47.2727C254.392 47.2727 254.046 47.3722 253.753 47.571C253.463 47.7671 253.24 48.0227 253.084 48.3381C252.928 48.6534 252.85 48.9915 252.85 49.3523V49.9318C252.85 50.4261 252.935 50.8452 253.105 51.1889C253.279 51.5298 253.519 51.7898 253.826 51.9688C254.132 52.1449 254.489 52.233 254.895 52.233C255.159 52.233 255.398 52.196 255.611 52.1222C255.827 52.0455 256.013 51.9318 256.169 51.7813C256.326 51.6278 256.446 51.4375 256.532 51.2102L257.503 51.483C257.401 51.8125 257.229 52.1023 256.988 52.3523C256.746 52.5994 256.448 52.7926 256.093 52.9318C255.738 53.0682 255.338 53.1364 254.895 53.1364Z" fill="#828282"/>
    <path d="M261.794 53.1364C261.181 53.1364 260.652 52.9915 260.209 52.7017C259.766 52.4119 259.425 52.0128 259.186 51.5043C258.948 50.9957 258.828 50.4148 258.828 49.7614C258.828 49.0966 258.951 48.51 259.195 48.0014C259.442 47.4901 259.786 47.0909 260.226 46.804C260.669 46.5142 261.186 46.3693 261.777 46.3693C262.238 46.3693 262.652 46.4546 263.022 46.625C263.391 46.7955 263.693 47.0341 263.929 47.3409C264.165 47.6477 264.311 48.0057 264.368 48.4148H263.363C263.286 48.1165 263.115 47.8523 262.851 47.6222C262.59 47.3892 262.238 47.2727 261.794 47.2727C261.402 47.2727 261.059 47.375 260.763 47.5796C260.47 47.7813 260.242 48.0668 260.077 48.4361C259.915 48.8026 259.834 49.233 259.834 49.7273C259.834 50.233 259.914 50.6733 260.073 51.0483C260.235 51.4233 260.462 51.7145 260.755 51.9219C261.05 52.1293 261.397 52.233 261.794 52.233C262.056 52.233 262.293 52.1875 262.506 52.0966C262.719 52.0057 262.899 51.875 263.047 51.7046C263.195 51.5341 263.3 51.3296 263.363 51.0909H264.368C264.311 51.4773 264.171 51.8253 263.946 52.135C263.725 52.4418 263.431 52.6861 263.064 52.8679C262.701 53.0469 262.277 53.1364 261.794 53.1364Z" fill="#828282"/>
    <path d="M267.765 53.1534C267.35 53.1534 266.973 53.0753 266.635 52.919C266.297 52.76 266.029 52.5313 265.83 52.233C265.631 51.9318 265.532 51.5682 265.532 51.1421C265.532 50.7671 265.605 50.4631 265.753 50.2301C265.901 49.9943 266.098 49.8097 266.345 49.6761C266.593 49.5426 266.865 49.4432 267.164 49.3778C267.465 49.3097 267.767 49.2557 268.071 49.2159C268.469 49.1648 268.792 49.1264 269.039 49.1009C269.289 49.0725 269.47 49.0256 269.584 48.9602C269.701 48.8949 269.759 48.7813 269.759 48.6193V48.5852C269.759 48.1648 269.644 47.8381 269.414 47.6051C269.186 47.3722 268.841 47.2557 268.378 47.2557C267.898 47.2557 267.522 47.3608 267.249 47.571C266.976 47.7813 266.784 48.0057 266.674 48.2443L265.719 47.9034C265.89 47.5057 266.117 47.196 266.401 46.9744C266.688 46.75 267 46.5938 267.338 46.5057C267.679 46.4148 268.015 46.3693 268.344 46.3693C268.554 46.3693 268.796 46.3949 269.068 46.446C269.344 46.4943 269.61 46.5952 269.865 46.7486C270.124 46.902 270.338 47.1335 270.509 47.4432C270.679 47.7528 270.765 48.1676 270.765 48.6875V53H269.759V52.1136H269.708C269.64 52.2557 269.526 52.4077 269.367 52.5696C269.208 52.7315 268.996 52.8693 268.732 52.983C268.468 53.0966 268.145 53.1534 267.765 53.1534ZM267.918 52.25C268.316 52.25 268.651 52.1719 268.924 52.0156C269.199 51.8594 269.407 51.6577 269.546 51.4105C269.688 51.1634 269.759 50.9034 269.759 50.6307V49.7102C269.716 49.7614 269.622 49.8082 269.478 49.8509C269.336 49.8906 269.171 49.9261 268.983 49.9574C268.799 49.9858 268.618 50.0114 268.442 50.0341C268.269 50.054 268.128 50.071 268.02 50.0852C267.759 50.1193 267.515 50.1747 267.287 50.2514C267.063 50.3253 266.881 50.4375 266.742 50.5881C266.605 50.7358 266.537 50.9375 266.537 51.1932C266.537 51.5426 266.667 51.8068 266.925 51.9858C267.186 52.1619 267.517 52.25 267.918 52.25Z" fill="#828282"/>
    <g filter="url(#filter0_di_601_156)">
        <circle cx="33" cy="28" r="28" fill="#2F80ED"/>
        <circle cx="33" cy="28" r="25.5" stroke="#F2F2F2" stroke-width="5"/>
    </g>
    <path d="M27.919 34.7748V33.8937C27.919 31.8745 28.0781 30.2652 28.3962 29.0659C28.7144 27.8666 29.1856 26.9059 29.8097 26.1839C30.4338 25.4496 31.1987 24.7888 32.1043 24.2014C32.8875 23.6874 33.585 23.1918 34.1969 22.7145C34.8211 22.2372 35.3106 21.7294 35.6655 21.1909C36.0326 20.6524 36.2162 20.0405 36.2162 19.3552C36.2162 18.7433 36.0693 18.2049 35.7756 17.7398C35.4819 17.2748 35.0842 16.9138 34.5824 16.6568C34.0807 16.3998 33.5239 16.2713 32.912 16.2713C32.2511 16.2713 31.6392 16.4243 31.0763 16.7302C30.5256 17.0362 30.0789 17.4584 29.7363 17.9968C29.4059 18.5353 29.2406 19.1594 29.2406 19.8692H19.842C19.8665 17.1769 20.4784 14.9925 21.6777 13.3159C22.877 11.6271 24.4679 10.3911 26.4504 9.60785C28.433 8.8124 30.6113 8.41467 32.9854 8.41467C35.6043 8.41467 37.9417 8.80016 39.9976 9.57114C42.0536 10.3299 43.6751 11.4802 44.8621 13.0222C46.0492 14.5519 46.6427 16.4671 46.6427 18.7678C46.6427 20.2486 46.3857 21.5519 45.8718 22.6778C45.37 23.7914 44.6663 24.7766 43.7607 25.6332C42.8674 26.4776 41.8211 27.2486 40.6218 27.9461C39.7406 28.4601 39.0003 28.9925 38.4006 29.5432C37.801 30.0816 37.3482 30.6996 37.0422 31.3972C36.7363 32.0825 36.5833 32.9147 36.5833 33.8937V34.7748H27.919ZM32.398 47.1105C30.9784 47.1105 29.7607 46.6148 28.745 45.6236C27.7415 44.6201 27.2459 43.4024 27.2581 41.9706C27.2459 40.5755 27.7415 39.3823 28.745 38.3911C29.7607 37.3998 30.9784 36.9042 32.398 36.9042C33.7441 36.9042 34.9312 37.3998 35.9592 38.3911C36.9994 39.3823 37.5256 40.5755 37.5378 41.9706C37.5256 42.9252 37.2747 43.794 36.7852 44.5773C36.3079 45.3482 35.6838 45.9662 34.9128 46.4313C34.1419 46.8841 33.3036 47.1105 32.398 47.1105Z" fill="#F2F2F2"/>
    <path d="M74 21.5027V3.24955H86.3877V6.43137H77.8869V10.7807H85.7504V13.9626H77.8869V18.3209H86.4236V21.5027H74Z" fill="#2F80ED"/>
    <path d="M93.1224 3.24955L96.8298 9.47059H96.9734L100.699 3.24955H105.088L99.4779 12.3761L105.214 21.5027H100.744L96.9734 15.2727H96.8298L93.0596 21.5027H88.6072L94.3612 12.3761L88.7149 3.24955H93.1224Z" fill="#2F80ED"/>
    <path d="M107.548 21.5027V3.24955H114.801C116.195 3.24955 117.383 3.51396 118.365 4.04278C119.346 4.56566 120.094 5.29352 120.609 6.22638C121.129 7.1533 121.39 8.22282 121.39 9.43494C121.39 10.6471 121.126 11.7166 120.6 12.6435C120.073 13.5704 119.31 14.2923 118.311 14.8093C117.317 15.3262 116.115 15.5847 114.702 15.5847H110.079V12.492H114.074C114.822 12.492 115.438 12.3642 115.923 12.1087C116.414 11.8473 116.779 11.4878 117.018 11.0303C117.264 10.5668 117.386 10.0351 117.386 9.43494C117.386 8.82888 117.264 8.30006 117.018 7.84848C116.779 7.39097 116.414 7.03743 115.923 6.78788C115.432 6.53238 114.81 6.40464 114.056 6.40464H111.435V21.5027H107.548Z" fill="#2F80ED"/>
    <path d="M123.914 21.5027V3.24955H136.302V6.43137H127.801V10.7807H135.665V13.9626H127.801V18.3209H136.338V21.5027H123.914Z" fill="#2F80ED"/>
    <path d="M139.392 21.5027V3.24955H146.645C148.034 3.24955 149.219 3.49614 150.2 3.98931C151.188 4.47653 151.939 5.16875 152.453 6.06595C152.974 6.95722 153.234 8.00594 153.234 9.21212C153.234 10.4242 152.971 11.467 152.444 12.3405C151.918 13.208 151.155 13.8734 150.155 14.3369C149.162 14.8004 147.959 15.0321 146.547 15.0321H141.69V11.9305H145.918C146.66 11.9305 147.277 11.8295 147.768 11.6275C148.258 11.4254 148.623 11.1224 148.863 10.7184C149.108 10.3143 149.231 9.81224 149.231 9.21212C149.231 8.60606 149.108 8.09507 148.863 7.67914C148.623 7.26322 148.255 6.94831 147.759 6.7344C147.268 6.51456 146.648 6.40464 145.9 6.40464H143.279V21.5027H139.392ZM149.32 13.1961L153.89 21.5027H149.599L145.128 13.1961H149.32Z" fill="#2F80ED"/>
    <path d="M155.281 6.43137V3.24955H170.38V6.43137H164.751V21.5027H160.909V6.43137H155.281Z" fill="#2F80ED"/>
    <path d="M178.966 15.1569H182.269L183.93 17.2781L185.564 19.1676L188.643 23H185.016L182.897 20.4153L181.811 18.8824L178.966 15.1569ZM188.921 12.3761C188.921 14.3666 188.541 16.06 187.781 17.4563C187.027 18.8526 185.997 19.9192 184.693 20.656C183.394 21.3868 181.934 21.7522 180.312 21.7522C178.678 21.7522 177.212 21.3838 175.914 20.6471C174.615 19.9103 173.589 18.8437 172.835 17.4474C172.081 16.0511 171.704 14.3607 171.704 12.3761C171.704 10.3856 172.081 8.69222 172.835 7.2959C173.589 5.89958 174.615 4.83601 175.914 4.10517C177.212 3.36839 178.678 3 180.312 3C181.934 3 183.394 3.36839 184.693 4.10517C185.997 4.83601 187.027 5.89958 187.781 7.2959C188.541 8.69222 188.921 10.3856 188.921 12.3761ZM184.98 12.3761C184.98 11.0868 184.786 9.99941 184.397 9.11408C184.014 8.22876 183.472 7.55734 182.772 7.09982C182.072 6.64231 181.252 6.41355 180.312 6.41355C179.373 6.41355 178.553 6.64231 177.853 7.09982C177.152 7.55734 176.608 8.22876 176.219 9.11408C175.836 9.99941 175.644 11.0868 175.644 12.3761C175.644 13.6655 175.836 14.7528 176.219 15.6381C176.608 16.5235 177.152 17.1949 177.853 17.6524C178.553 18.1099 179.373 18.3387 180.312 18.3387C181.252 18.3387 182.072 18.1099 182.772 17.6524C183.472 17.1949 184.014 16.5235 184.397 15.6381C184.786 14.7528 184.98 13.6655 184.98 12.3761Z" fill="#2F80ED"/>
    <path d="M192.803 21.7344C192.211 21.7344 191.702 21.5264 191.277 21.1105C190.858 20.6887 190.649 20.1836 190.649 19.5954C190.649 19.0131 190.858 18.514 191.277 18.098C191.702 17.6821 192.211 17.4742 192.803 17.4742C193.378 17.4742 193.88 17.6821 194.311 18.098C194.742 18.514 194.958 19.0131 194.958 19.5954C194.958 19.9875 194.856 20.347 194.652 20.6738C194.455 20.9947 194.195 21.2531 193.871 21.4492C193.548 21.6393 193.192 21.7344 192.803 21.7344Z" fill="#2F80ED"/>
    <path d="M198.169 21.5027V3.24955H205.422C206.81 3.24955 207.995 3.49614 208.977 3.98931C209.964 4.47653 210.715 5.16875 211.23 6.06595C211.751 6.95722 212.011 8.00594 212.011 9.21212C212.011 10.4242 211.748 11.467 211.221 12.3405C210.694 13.208 209.931 13.8734 208.932 14.3369C207.938 14.8004 206.736 15.0321 205.323 15.0321H200.467V11.9305H204.695C205.437 11.9305 206.053 11.8295 206.544 11.6275C207.035 11.4254 207.4 11.1224 207.639 10.7184C207.885 10.3143 208.007 9.81224 208.007 9.21212C208.007 8.60606 207.885 8.09507 207.639 7.67914C207.4 7.26322 207.032 6.94831 206.535 6.7344C206.044 6.51456 205.425 6.40464 204.677 6.40464H202.056V21.5027H198.169ZM208.097 13.1961L212.666 21.5027H208.375L203.905 13.1961H208.097Z" fill="#2F80ED"/>
    <path d="M226.113 3.24955H230V15.1034C230 16.4343 229.68 17.5989 229.039 18.5971C228.405 19.5954 227.516 20.3737 226.373 20.9323C225.23 21.4848 223.899 21.7611 222.379 21.7611C220.853 21.7611 219.518 21.4848 218.375 20.9323C217.232 20.3737 216.344 19.5954 215.709 18.5971C215.075 17.5989 214.758 16.4343 214.758 15.1034V3.24955H218.645V14.7736C218.645 15.4688 218.797 16.0868 219.102 16.6275C219.414 17.1682 219.85 17.593 220.413 17.902C220.976 18.2109 221.631 18.3654 222.379 18.3654C223.133 18.3654 223.788 18.2109 224.345 17.902C224.907 17.593 225.341 17.1682 225.646 16.6275C225.958 16.0868 226.113 15.4688 226.113 14.7736V3.24955Z" fill="#2F80ED"/>
    <defs>
        <filter id="filter0_di_601_156" x="0" y="0" width="76" height="76" filterUnits="userSpaceOnUse" color-interpolation-filters="sRGB">
            <feFlood flood-opacity="0" result="BackgroundImageFix"/>
            <feColorMatrix in="SourceAlpha" type="matrix" values="0 0 0 0 0 0 0 0 0 0 0 0 0 0 0 0 0 0 127 0" result="hardAlpha"/>
            <feOffset dx="5" dy="10"/>
            <feGaussianBlur stdDeviation="5"/>
            <feComposite in2="hardAlpha" operator="out"/>
            <feColorMatrix type="matrix" values="0 0 0 0 0 0 0 0 0 0 0 0 0 0 0 0 0 0 0.15 0"/>
            <feBlend mode="normal" in2="BackgroundImageFix" result="effect1_dropShadow_601_156"/>
            <feBlend mode="normal" in="SourceGraphic" in2="effect1_dropShadow_601_156" result="shape"/>
            <feColorMatrix in="SourceAlpha" type="matrix" values="0 0 0 0 0 0 0 0 0 0 0 0 0 0 0 0 0 0 127 0" result="hardAlpha"/>
            <feOffset dx="5" dy="5"/>
            <feGaussianBlur stdDeviation="5"/>
            <feComposite in2="hardAlpha" operator="arithmetic" k2="-1" k3="1"/>
            <feColorMatrix type="matrix" values="0 0 0 0 0 0 0 0 0 0 0 0 0 0 0 0 0 0 0.3 0"/>
            <feBlend mode="normal" in2="shape" result="effect2_innerShadow_601_156"/>
        </filter>
    </defs>
</svg>
