<svg width="271" height="76" viewBox="0 0 271 76" fill="none" xmlns="http://www.w3.org/2000/svg">
    <path d="M74.0568 39.0002V30.2729H75.1136V34.1593H79.767V30.2729H80.8238V39.0002H79.767V35.0968H75.1136V39.0002H74.0568Z" fill="#F2F2F2"/>
    <path d="M84.7294 39.1536C84.3146 39.1536 83.9382 39.0755 83.6001 38.9193C83.262 38.7602 82.9936 38.5315 82.7947 38.2332C82.5958 37.932 82.4964 37.5684 82.4964 37.1423C82.4964 36.7673 82.5703 36.4633 82.718 36.2303C82.8657 35.9945 83.0632 35.8099 83.3103 35.6764C83.5575 35.5428 83.8302 35.4434 84.1285 35.3781C84.4296 35.3099 84.7322 35.2559 85.0362 35.2161C85.4339 35.165 85.7563 35.1266 86.0035 35.1011C86.2535 35.0727 86.4353 35.0258 86.549 34.9604C86.6654 34.8951 86.7237 34.7815 86.7237 34.6195V34.5854C86.7237 34.165 86.6086 33.8383 86.3785 33.6053C86.1512 33.3724 85.8061 33.2559 85.343 33.2559C84.8629 33.2559 84.4865 33.361 84.2137 33.5712C83.941 33.7815 83.7492 34.0059 83.6384 34.2445L82.6839 33.9036C82.8544 33.5059 83.0816 33.1962 83.3657 32.9747C83.6527 32.7502 83.9652 32.594 84.3032 32.5059C84.6441 32.415 84.9794 32.3695 85.3089 32.3695C85.5191 32.3695 85.7606 32.3951 86.0333 32.4462C86.3089 32.4945 86.5745 32.5954 86.8302 32.7488C87.0887 32.9022 87.3032 33.1337 87.4737 33.4434C87.6441 33.7531 87.7294 34.1678 87.7294 34.6877V39.0002H86.7237V38.1139H86.6725C86.6044 38.2559 86.4907 38.4079 86.3316 38.5698C86.1725 38.7318 85.9609 38.8695 85.6967 38.9832C85.4325 39.0968 85.11 39.1536 84.7294 39.1536ZM84.8828 38.2502C85.2805 38.2502 85.6157 38.1721 85.8885 38.0158C86.164 37.8596 86.3714 37.6579 86.5106 37.4107C86.6527 37.1636 86.7237 36.9036 86.7237 36.6309V35.7104C86.6811 35.7616 86.5873 35.8085 86.4424 35.8511C86.3004 35.8908 86.1356 35.9264 85.9481 35.9576C85.7634 35.986 85.5831 36.0116 85.4069 36.0343C85.2336 36.0542 85.093 36.0712 84.985 36.0854C84.7237 36.1195 84.4794 36.1749 84.2521 36.2516C84.0277 36.3255 83.8458 36.4377 83.7066 36.5883C83.5703 36.736 83.5021 36.9377 83.5021 37.1934C83.5021 37.5428 83.6313 37.807 83.8899 37.986C84.1512 38.1622 84.4822 38.2502 84.8828 38.2502Z" fill="#F2F2F2"/>
    <path d="M88.6743 33.3923V32.4548H93.9925V33.3923H91.8448V39.0002H90.8391V33.3923H88.6743Z" fill="#F2F2F2"/>
    <path d="M96.4652 37.5173L99.6186 32.4548H100.778V39.0002H99.772V33.9377L96.6356 39.0002H95.4595V32.4548H96.4652V37.5173Z" fill="#F2F2F2"/>
    <path d="M102.62 39.0002V32.4548H105.296C106 32.4548 106.56 32.6139 106.975 32.932C107.39 33.2502 107.597 33.6707 107.597 34.1934C107.597 34.5911 107.479 34.8994 107.243 35.1181C107.007 35.334 106.705 35.4803 106.336 35.557C106.577 35.5911 106.811 35.6764 107.039 35.8127C107.269 35.9491 107.459 36.1366 107.61 36.3752C107.76 36.611 107.836 36.9008 107.836 37.2445C107.836 37.5798 107.75 37.8795 107.58 38.1437C107.409 38.4079 107.165 38.6167 106.847 38.7701C106.529 38.9235 106.148 39.0002 105.705 39.0002H102.62ZM103.574 38.0798H105.705C106.051 38.0798 106.323 37.9974 106.519 37.8326C106.715 37.6678 106.813 37.4434 106.813 37.1593C106.813 36.8212 106.715 36.5556 106.519 36.3624C106.323 36.1664 106.051 36.0684 105.705 36.0684H103.574V38.0798ZM103.574 35.1991H105.296C105.566 35.1991 105.797 35.1622 105.99 35.0883C106.184 35.0116 106.331 34.9036 106.434 34.7644C106.539 34.6224 106.591 34.4548 106.591 34.2616C106.591 33.986 106.476 33.7701 106.246 33.6139C106.016 33.4548 105.699 33.3752 105.296 33.3752H103.574V35.1991Z" fill="#F2F2F2"/>
    <path d="M113.739 35.2673V36.2048H110.125V35.2673H113.739ZM110.364 32.4548V39.0002H109.358V32.4548H110.364ZM114.506 32.4548V39.0002H113.5V32.4548H114.506Z" fill="#F2F2F2"/>
    <path d="M118.268 39.1536C117.854 39.1536 117.477 39.0755 117.139 38.9193C116.801 38.7602 116.533 38.5315 116.334 38.2332C116.135 37.932 116.035 37.5684 116.035 37.1423C116.035 36.7673 116.109 36.4633 116.257 36.2303C116.405 35.9945 116.602 35.8099 116.849 35.6764C117.097 35.5428 117.369 35.4434 117.668 35.3781C117.969 35.3099 118.271 35.2559 118.575 35.2161C118.973 35.165 119.295 35.1266 119.543 35.1011C119.793 35.0727 119.974 35.0258 120.088 34.9604C120.205 34.8951 120.263 34.7815 120.263 34.6195V34.5854C120.263 34.165 120.148 33.8383 119.918 33.6053C119.69 33.3724 119.345 33.2559 118.882 33.2559C118.402 33.2559 118.026 33.361 117.753 33.5712C117.48 33.7815 117.288 34.0059 117.178 34.2445L116.223 33.9036C116.393 33.5059 116.621 33.1962 116.905 32.9747C117.192 32.7502 117.504 32.594 117.842 32.5059C118.183 32.415 118.518 32.3695 118.848 32.3695C119.058 32.3695 119.3 32.3951 119.572 32.4462C119.848 32.4945 120.114 32.5954 120.369 32.7488C120.628 32.9022 120.842 33.1337 121.013 33.4434C121.183 33.7531 121.268 34.1678 121.268 34.6877V39.0002H120.263V38.1139H120.212C120.143 38.2559 120.03 38.4079 119.871 38.5698C119.712 38.7318 119.5 38.8695 119.236 38.9832C118.972 39.0968 118.649 39.1536 118.268 39.1536ZM118.422 38.2502C118.82 38.2502 119.155 38.1721 119.428 38.0158C119.703 37.8596 119.91 37.6579 120.05 37.4107C120.192 37.1636 120.263 36.9036 120.263 36.6309V35.7104C120.22 35.7616 120.126 35.8085 119.981 35.8511C119.839 35.8908 119.675 35.9264 119.487 35.9576C119.303 35.986 119.122 36.0116 118.946 36.0343C118.773 36.0542 118.632 36.0712 118.524 36.0854C118.263 36.1195 118.018 36.1749 117.791 36.2516C117.567 36.3255 117.385 36.4377 117.246 36.5883C117.109 36.736 117.041 36.9377 117.041 37.1934C117.041 37.5428 117.17 37.807 117.429 37.986C117.69 38.1622 118.021 38.2502 118.422 38.2502Z" fill="#F2F2F2"/>
    <path d="M127.042 39.0002V33.3752H125.303C124.911 33.3752 124.603 33.4661 124.378 33.6479C124.154 33.8298 124.042 34.0798 124.042 34.3979C124.042 34.7104 124.142 34.9562 124.344 35.1352C124.549 35.3141 124.828 35.4036 125.184 35.4036H127.297V36.3411H125.184C124.74 36.3411 124.358 36.263 124.037 36.1068C123.716 35.9505 123.469 35.7275 123.296 35.4377C123.122 35.1451 123.036 34.7985 123.036 34.3979C123.036 33.9945 123.127 33.6479 123.309 33.3582C123.49 33.0684 123.75 32.8454 124.088 32.6891C124.429 32.5329 124.834 32.4548 125.303 32.4548H127.996V39.0002H127.042ZM122.678 39.0002L124.536 35.7445H125.627L123.769 39.0002H122.678Z" fill="#F2F2F2"/>
    <path d="M133.217 41.4548V32.4548H134.189V33.4945H134.308C134.382 33.3809 134.484 33.236 134.615 33.0599C134.749 32.8809 134.939 32.7218 135.186 32.5826C135.436 32.4406 135.774 32.3695 136.2 32.3695C136.751 32.3695 137.237 32.5073 137.658 32.7829C138.078 33.0585 138.406 33.4491 138.642 33.9548C138.878 34.4604 138.996 35.057 138.996 35.7445C138.996 36.4377 138.878 37.0386 138.642 37.5471C138.406 38.0528 138.079 38.4448 137.662 38.7232C137.244 38.9988 136.763 39.1366 136.217 39.1366C135.797 39.1366 135.46 39.067 135.207 38.9278C134.954 38.7857 134.76 38.6252 134.624 38.4462C134.487 38.2644 134.382 38.1139 134.308 37.9945H134.223V41.4548H133.217ZM134.206 35.7275C134.206 36.2218 134.278 36.6579 134.423 37.0357C134.568 37.4107 134.78 37.7048 135.058 37.9178C135.337 38.1281 135.678 38.2332 136.081 38.2332C136.501 38.2332 136.852 38.1224 137.133 37.9008C137.418 37.6764 137.631 37.3752 137.773 36.9974C137.918 36.6167 137.99 36.1934 137.99 35.7275C137.99 35.2673 137.919 34.8525 137.777 34.4832C137.638 34.111 137.426 33.817 137.142 33.6011C136.861 33.3823 136.507 33.2729 136.081 33.2729C135.672 33.2729 135.328 33.3766 135.05 33.584C134.771 33.7886 134.561 34.0755 134.419 34.4448C134.277 34.8113 134.206 35.2389 134.206 35.7275Z" fill="#F2F2F2"/>
    <path d="M143.274 39.1366C142.643 39.1366 142.099 38.9974 141.642 38.719C141.187 38.4377 140.837 38.0457 140.589 37.5428C140.345 37.0372 140.223 36.4491 140.223 35.7786C140.223 35.1082 140.345 34.5173 140.589 34.0059C140.837 33.4917 141.18 33.0911 141.621 32.8042C142.064 32.5144 142.581 32.3695 143.172 32.3695C143.513 32.3695 143.849 32.4264 144.182 32.54C144.514 32.6536 144.817 32.8383 145.089 33.094C145.362 33.3468 145.579 33.682 145.741 34.0997C145.903 34.5173 145.984 35.0315 145.984 35.6423V36.0684H140.939V35.1991H144.962C144.962 34.8298 144.888 34.5002 144.74 34.2104C144.595 33.9207 144.388 33.692 144.118 33.5244C143.851 33.3568 143.535 33.2729 143.172 33.2729C142.771 33.2729 142.425 33.3724 142.132 33.5712C141.842 33.7673 141.619 34.0229 141.463 34.3383C141.307 34.6536 141.229 34.9917 141.229 35.3525V35.932C141.229 36.4264 141.314 36.8454 141.484 37.1891C141.658 37.5301 141.898 37.79 142.204 37.969C142.511 38.1451 142.868 38.2332 143.274 38.2332C143.538 38.2332 143.777 38.1962 143.99 38.1224C144.206 38.0457 144.392 37.932 144.548 37.7815C144.704 37.6281 144.825 37.4377 144.91 37.2104L145.882 37.4832C145.78 37.8127 145.608 38.1025 145.366 38.3525C145.125 38.5997 144.827 38.7928 144.472 38.932C144.116 39.0684 143.717 39.1366 143.274 39.1366Z" fill="#F2F2F2"/>
    <path d="M147.514 39.0002V32.4548H148.52V35.3014H149.185L151.537 32.4548H152.832L150.19 35.6082L152.866 39.0002H151.571L149.423 36.2389H148.52V39.0002H147.514Z" fill="#F2F2F2"/>
    <path d="M153.38 39.0002V38.0627H153.619C153.815 38.0627 153.978 38.0244 154.109 37.9477C154.239 37.8681 154.344 37.7303 154.424 37.5343C154.506 37.3354 154.569 37.0599 154.611 36.7076C154.657 36.3525 154.69 35.9008 154.709 35.3525L154.829 32.4548H159.192V39.0002H158.187V33.3923H155.783L155.681 35.7275C155.658 36.2644 155.61 36.7374 155.536 37.1465C155.465 37.5528 155.356 37.8937 155.208 38.1693C155.063 38.4448 154.87 38.6522 154.629 38.7914C154.387 38.9306 154.084 39.0002 153.721 39.0002H153.38Z" fill="#F2F2F2"/>
    <path d="M162.964 39.1536C162.549 39.1536 162.173 39.0755 161.834 38.9193C161.496 38.7602 161.228 38.5315 161.029 38.2332C160.83 37.932 160.731 37.5684 160.731 37.1423C160.731 36.7673 160.805 36.4633 160.952 36.2303C161.1 35.9945 161.298 35.8099 161.545 35.6764C161.792 35.5428 162.065 35.4434 162.363 35.3781C162.664 35.3099 162.967 35.2559 163.271 35.2161C163.668 35.165 163.991 35.1266 164.238 35.1011C164.488 35.0727 164.67 35.0258 164.783 34.9604C164.9 34.8951 164.958 34.7815 164.958 34.6195V34.5854C164.958 34.165 164.843 33.8383 164.613 33.6053C164.386 33.3724 164.04 33.2559 163.577 33.2559C163.097 33.2559 162.721 33.361 162.448 33.5712C162.175 33.7815 161.984 34.0059 161.873 34.2445L160.918 33.9036C161.089 33.5059 161.316 33.1962 161.6 32.9747C161.887 32.7502 162.2 32.594 162.538 32.5059C162.879 32.415 163.214 32.3695 163.543 32.3695C163.754 32.3695 163.995 32.3951 164.268 32.4462C164.543 32.4945 164.809 32.5954 165.065 32.7488C165.323 32.9022 165.538 33.1337 165.708 33.4434C165.879 33.7531 165.964 34.1678 165.964 34.6877V39.0002H164.958V38.1139H164.907C164.839 38.2559 164.725 38.4079 164.566 38.5698C164.407 38.7318 164.195 38.8695 163.931 38.9832C163.667 39.0968 163.344 39.1536 162.964 39.1536ZM163.117 38.2502C163.515 38.2502 163.85 38.1721 164.123 38.0158C164.398 37.8596 164.606 37.6579 164.745 37.4107C164.887 37.1636 164.958 36.9036 164.958 36.6309V35.7104C164.915 35.7616 164.822 35.8085 164.677 35.8511C164.535 35.8908 164.37 35.9264 164.182 35.9576C163.998 35.986 163.817 36.0116 163.641 36.0343C163.468 36.0542 163.327 36.0712 163.219 36.0854C162.958 36.1195 162.714 36.1749 162.486 36.2516C162.262 36.3255 162.08 36.4377 161.941 36.5883C161.805 36.736 161.736 36.9377 161.736 37.1934C161.736 37.5428 161.866 37.807 162.124 37.986C162.386 38.1622 162.717 38.2502 163.117 38.2502Z" fill="#F2F2F2"/>
    <path d="M171.379 37.6366L173.663 32.4548H174.618L171.788 39.0002H170.97L168.191 32.4548H169.129L171.379 37.6366ZM168.805 32.4548V39.0002H167.799V32.4548H168.805ZM173.953 39.0002V32.4548H174.958V39.0002H173.953Z" fill="#F2F2F2"/>
    <path d="M178.725 39.1536C178.311 39.1536 177.934 39.0755 177.596 38.9193C177.258 38.7602 176.99 38.5315 176.791 38.2332C176.592 37.932 176.493 37.5684 176.493 37.1423C176.493 36.7673 176.566 36.4633 176.714 36.2303C176.862 35.9945 177.059 35.8099 177.306 35.6764C177.554 35.5428 177.826 35.4434 178.125 35.3781C178.426 35.3099 178.728 35.2559 179.032 35.2161C179.43 35.165 179.752 35.1266 180 35.1011C180.25 35.0727 180.431 35.0258 180.545 34.9604C180.662 34.8951 180.72 34.7815 180.72 34.6195V34.5854C180.72 34.165 180.605 33.8383 180.375 33.6053C180.147 33.3724 179.802 33.2559 179.339 33.2559C178.859 33.2559 178.483 33.361 178.21 33.5712C177.937 33.7815 177.745 34.0059 177.635 34.2445L176.68 33.9036C176.85 33.5059 177.078 33.1962 177.362 32.9747C177.649 32.7502 177.961 32.594 178.299 32.5059C178.64 32.415 178.975 32.3695 179.305 32.3695C179.515 32.3695 179.757 32.3951 180.029 32.4462C180.305 32.4945 180.571 32.5954 180.826 32.7488C181.085 32.9022 181.299 33.1337 181.47 33.4434C181.64 33.7531 181.725 34.1678 181.725 34.6877V39.0002H180.72V38.1139H180.669C180.6 38.2559 180.487 38.4079 180.328 38.5698C180.169 38.7318 179.957 38.8695 179.693 38.9832C179.429 39.0968 179.106 39.1536 178.725 39.1536ZM178.879 38.2502C179.277 38.2502 179.612 38.1721 179.885 38.0158C180.16 37.8596 180.368 37.6579 180.507 37.4107C180.649 37.1636 180.72 36.9036 180.72 36.6309V35.7104C180.677 35.7616 180.583 35.8085 180.439 35.8511C180.296 35.8908 180.132 35.9264 179.944 35.9576C179.76 35.986 179.579 36.0116 179.403 36.0343C179.23 36.0542 179.089 36.0712 178.981 36.0854C178.72 36.1195 178.475 36.1749 178.248 36.2516C178.024 36.3255 177.842 36.4377 177.703 36.5883C177.566 36.736 177.498 36.9377 177.498 37.1934C177.498 37.5428 177.627 37.807 177.886 37.986C178.147 38.1622 178.478 38.2502 178.879 38.2502Z" fill="#F2F2F2"/>
    <path d="M73.9204 53.0002V46.4548H76.5965C77.3011 46.4548 77.8608 46.6139 78.2755 46.932C78.6903 47.2502 78.8977 47.6707 78.8977 48.1934C78.8977 48.5911 78.7798 48.8994 78.544 49.1181C78.3082 49.334 78.0056 49.4803 77.6363 49.557C77.8778 49.5911 78.1122 49.6764 78.3394 49.8127C78.5696 49.9491 78.7599 50.1366 78.9105 50.3752C79.061 50.611 79.1363 50.9008 79.1363 51.2445C79.1363 51.5798 79.0511 51.8795 78.8806 52.1437C78.7102 52.4079 78.4659 52.6167 78.1477 52.7701C77.8295 52.9235 77.4488 53.0002 77.0056 53.0002H73.9204ZM74.875 52.0798H77.0056C77.3522 52.0798 77.6235 51.9974 77.8196 51.8326C78.0156 51.6678 78.1136 51.4434 78.1136 51.1593C78.1136 50.8212 78.0156 50.5556 77.8196 50.3624C77.6235 50.1664 77.3522 50.0684 77.0056 50.0684H74.875V52.0798ZM74.875 49.1991H76.5965C76.8664 49.1991 77.098 49.1622 77.2911 49.0883C77.4843 49.0116 77.6321 48.9036 77.7343 48.7644C77.8394 48.6224 77.892 48.4548 77.892 48.2616C77.892 47.986 77.7769 47.7701 77.5468 47.6139C77.3167 47.4548 77 47.3752 76.5965 47.3752H74.875V49.1991Z" fill="#F2F2F2"/>
    <path d="M90.1019 53.0002H89.0451V45.2104H87.1871C86.7155 45.2104 86.3362 45.2829 86.0493 45.4278C85.7624 45.5698 85.5536 45.7715 85.4229 46.0329C85.2922 46.2943 85.2269 46.5997 85.2269 46.9491C85.2269 47.2985 85.2908 47.5997 85.4186 47.8525C85.5493 48.1025 85.7567 48.2957 86.0408 48.432C86.3277 48.5684 86.7041 48.6366 87.1701 48.6366H89.5223V49.5911H87.136C86.4598 49.5911 85.9044 49.4789 85.4698 49.2545C85.0351 49.0272 84.7127 48.7147 84.5024 48.317C84.2922 47.9193 84.1871 47.4633 84.1871 46.9491C84.1871 46.4349 84.2922 45.9761 84.5024 45.5727C84.7127 45.1693 85.0365 44.8525 85.474 44.6224C85.9115 44.3894 86.4712 44.2729 87.153 44.2729H90.1019V53.0002ZM85.9939 49.0798H87.1871L85.0735 53.0002H83.8462L85.9939 49.0798Z" fill="#F2F2F2"/>
    <path d="M96.4652 49.2673V50.2048H92.8515V49.2673H96.4652ZM93.0902 46.4548V53.0002H92.0845V46.4548H93.0902ZM97.2322 46.4548V53.0002H96.2265V46.4548H97.2322Z" fill="#F2F2F2"/>
    <path d="M98.37 54.8752V52.0627H98.9154C99.049 51.9235 99.164 51.7729 99.2606 51.611C99.3572 51.4491 99.441 51.2573 99.512 51.0357C99.5859 50.8113 99.6484 50.5386 99.6995 50.2176C99.7507 49.8937 99.7961 49.5031 99.8359 49.0457L100.057 46.4548H104.217V52.0627H105.222V54.8752H104.217V53.0002H99.3757V54.8752H98.37ZM100.057 52.0627H103.211V47.3923H100.995L100.825 49.0457C100.754 49.7303 100.665 50.3283 100.56 50.8397C100.455 51.3511 100.288 51.7587 100.057 52.0627Z" fill="#F2F2F2"/>
    <path d="M109.301 53.1366C108.671 53.1366 108.127 52.9974 107.669 52.719C107.215 52.4377 106.864 52.0457 106.617 51.5428C106.372 51.0372 106.25 50.4491 106.25 49.7786C106.25 49.1082 106.372 48.5173 106.617 48.0059C106.864 47.4917 107.208 47.0911 107.648 46.8042C108.091 46.5144 108.608 46.3695 109.199 46.3695C109.54 46.3695 109.877 46.4264 110.209 46.54C110.542 46.6536 110.844 46.8383 111.117 47.094C111.39 47.3468 111.607 47.682 111.769 48.0997C111.931 48.5173 112.012 49.0315 112.012 49.6423V50.0684H106.966V49.1991H110.989C110.989 48.8298 110.915 48.5002 110.767 48.2104C110.622 47.9207 110.415 47.692 110.145 47.5244C109.878 47.3568 109.563 47.2729 109.199 47.2729C108.799 47.2729 108.452 47.3724 108.159 47.5712C107.87 47.7673 107.647 48.0229 107.49 48.3383C107.334 48.6536 107.256 48.9917 107.256 49.3525V49.932C107.256 50.4264 107.341 50.8454 107.512 51.1891C107.685 51.5301 107.925 51.79 108.232 51.969C108.539 52.1451 108.895 52.2332 109.301 52.2332C109.566 52.2332 109.804 52.1962 110.017 52.1224C110.233 52.0457 110.419 51.932 110.576 51.7815C110.732 51.6281 110.853 51.4377 110.938 51.2104L111.909 51.4832C111.807 51.8127 111.635 52.1025 111.394 52.3525C111.152 52.5997 110.854 52.7928 110.499 52.932C110.144 53.0684 109.745 53.1366 109.301 53.1366Z" fill="#F2F2F2"/>
    <path d="M113.542 53.0002V46.4548H114.547V49.3014H115.212L117.564 46.4548H118.86L116.218 49.6082L118.894 53.0002H117.598L115.451 50.2389H114.547V53.0002H113.542Z" fill="#F2F2F2"/>
    <path d="M122.376 53.1366C121.763 53.1366 121.234 52.9917 120.791 52.7019C120.348 52.4122 120.007 52.013 119.768 51.5045C119.53 50.996 119.41 50.415 119.41 49.7616C119.41 49.0968 119.533 48.5102 119.777 48.0016C120.024 47.4903 120.368 47.0911 120.808 46.8042C121.251 46.5144 121.768 46.3695 122.359 46.3695C122.82 46.3695 123.234 46.4548 123.604 46.6252C123.973 46.7957 124.276 47.0343 124.511 47.3411C124.747 47.6479 124.893 48.0059 124.95 48.415H123.945C123.868 48.1167 123.697 47.8525 123.433 47.6224C123.172 47.3894 122.82 47.2729 122.376 47.2729C121.984 47.2729 121.641 47.3752 121.345 47.5798C121.053 47.7815 120.824 48.067 120.659 48.4363C120.497 48.8028 120.416 49.2332 120.416 49.7275C120.416 50.2332 120.496 50.6735 120.655 51.0485C120.817 51.4235 121.044 51.7147 121.337 51.9221C121.632 52.1295 121.979 52.2332 122.376 52.2332C122.638 52.2332 122.875 52.1877 123.088 52.0968C123.301 52.0059 123.481 51.8752 123.629 51.7048C123.777 51.5343 123.882 51.3298 123.945 51.0911H124.95C124.893 51.4775 124.753 51.8255 124.528 52.1352C124.307 52.442 124.013 52.6863 123.646 52.8681C123.283 53.0471 122.859 53.1366 122.376 53.1366Z" fill="#F2F2F2"/>
    <path d="M135.062 53.0002L132.062 48.9945H130.989V53.0002H129.932V44.2729H130.989V48.057H131.449L134.943 44.2729H136.205L132.676 48.1082L136.324 53.0002H135.062Z" fill="#F2F2F2"/>
    <path d="M138.423 48.8241H140.298C141.065 48.8241 141.651 49.0187 142.057 49.4079C142.464 49.7971 142.667 50.29 142.667 50.8866C142.667 51.2786 142.576 51.6352 142.394 51.9562C142.212 52.2744 141.945 52.5286 141.593 52.719C141.241 52.9065 140.809 53.0002 140.298 53.0002H137.553V46.4548H138.559V52.0627H140.298C140.695 52.0627 141.022 51.9576 141.278 51.7474C141.533 51.5372 141.661 51.2673 141.661 50.9377C141.661 50.5911 141.533 50.3085 141.278 50.0897C141.022 49.871 140.695 49.7616 140.298 49.7616H138.423V48.8241Z" fill="#F2F2F2"/>
    <path d="M147.334 49.3184V50.2559H143.874V49.3184H147.334ZM144.726 46.4548V53.0002H143.72V46.4548H144.726ZM149.345 53.1366C148.755 53.1366 148.236 52.996 147.79 52.7147C147.347 52.4335 147 52.04 146.75 51.5343C146.503 51.0286 146.38 50.4377 146.38 49.7616C146.38 49.0798 146.503 48.4846 146.75 47.9761C147 47.4676 147.347 47.0727 147.79 46.7914C148.236 46.5102 148.755 46.3695 149.345 46.3695C149.936 46.3695 150.453 46.5102 150.897 46.7914C151.343 47.0727 151.689 47.4676 151.936 47.9761C152.186 48.4846 152.311 49.0798 152.311 49.7616C152.311 50.4377 152.186 51.0286 151.936 51.5343C151.689 52.04 151.343 52.4335 150.897 52.7147C150.453 52.996 149.936 53.1366 149.345 53.1366ZM149.345 52.2332C149.794 52.2332 150.164 52.1181 150.453 51.888C150.743 51.6579 150.958 51.3553 151.097 50.9803C151.236 50.6053 151.306 50.1991 151.306 49.7616C151.306 49.3241 151.236 48.9164 151.097 48.5386C150.958 48.1607 150.743 47.8553 150.453 47.6224C150.164 47.3894 149.794 47.2729 149.345 47.2729C148.897 47.2729 148.527 47.3894 148.238 47.6224C147.948 47.8553 147.733 48.1607 147.594 48.5386C147.455 48.9164 147.385 49.3241 147.385 49.7616C147.385 50.1991 147.455 50.6053 147.594 50.9803C147.733 51.3553 147.948 51.6579 148.238 51.888C148.527 52.1181 148.897 52.2332 149.345 52.2332Z" fill="#F2F2F2"/>
    <path d="M156.624 54.8752V52.0627H157.169C157.303 51.9235 157.418 51.7729 157.515 51.611C157.611 51.4491 157.695 51.2573 157.766 51.0357C157.84 50.8113 157.902 50.5386 157.953 50.2176C158.005 49.8937 158.05 49.5031 158.09 49.0457L158.311 46.4548H162.47V52.0627H163.476V54.8752H162.47V53.0002H157.63V54.8752H156.624ZM158.311 52.0627H161.465V47.3923H159.249L159.078 49.0457C159.007 49.7303 158.919 50.3283 158.814 50.8397C158.709 51.3511 158.542 51.7587 158.311 52.0627Z" fill="#F2F2F2"/>
    <path d="M164.231 53.0002V52.0627H164.47C164.666 52.0627 164.829 52.0244 164.96 51.9477C165.091 51.8681 165.196 51.7303 165.276 51.5343C165.358 51.3354 165.42 51.0599 165.463 50.7076C165.508 50.3525 165.541 49.9008 165.561 49.3525L165.68 46.4548H170.044V53.0002H169.038V47.3923H166.635L166.533 49.7275C166.51 50.2644 166.462 50.7374 166.388 51.1465C166.317 51.5528 166.207 51.8937 166.06 52.1693C165.915 52.4448 165.722 52.6522 165.48 52.7914C165.239 52.9306 164.936 53.0002 164.572 53.0002H164.231Z" fill="#F2F2F2"/>
    <path d="M175.827 53.0002V47.3752H174.088C173.696 47.3752 173.388 47.4661 173.163 47.6479C172.939 47.8298 172.827 48.0798 172.827 48.3979C172.827 48.7104 172.928 48.9562 173.129 49.1352C173.334 49.3141 173.614 49.4036 173.969 49.4036H176.082V50.3411H173.969C173.526 50.3411 173.143 50.263 172.822 50.1068C172.501 49.9505 172.254 49.7275 172.081 49.4377C171.908 49.1451 171.821 48.7985 171.821 48.3979C171.821 47.9945 171.912 47.6479 172.094 47.3582C172.276 47.0684 172.535 46.8454 172.874 46.6891C173.214 46.5329 173.619 46.4548 174.088 46.4548H176.781V53.0002H175.827ZM171.463 53.0002L173.321 49.7445H174.412L172.554 53.0002H171.463Z" fill="#F2F2F2"/>
    <path d="M181.627 47.3923V46.4548H186.946V47.3923H184.798V53.0002H183.792V47.3923H181.627Z" fill="#F2F2F2"/>
    <path d="M188.413 53.0002V46.4548H191.089C191.793 46.4548 192.353 46.6139 192.768 46.932C193.182 47.2502 193.39 47.6707 193.39 48.1934C193.39 48.5911 193.272 48.8994 193.036 49.1181C192.8 49.334 192.498 49.4803 192.129 49.557C192.37 49.5911 192.604 49.6764 192.832 49.8127C193.062 49.9491 193.252 50.1366 193.403 50.3752C193.553 50.611 193.629 50.9008 193.629 51.2445C193.629 51.5798 193.543 51.8795 193.373 52.1437C193.202 52.4079 192.958 52.6167 192.64 52.7701C192.322 52.9235 191.941 53.0002 191.498 53.0002H188.413ZM189.367 52.0798H191.498C191.844 52.0798 192.116 51.9974 192.312 51.8326C192.508 51.6678 192.606 51.4434 192.606 51.1593C192.606 50.8212 192.508 50.5556 192.312 50.3624C192.116 50.1664 191.844 50.0684 191.498 50.0684H189.367V52.0798ZM189.367 49.1991H191.089C191.359 49.1991 191.59 49.1622 191.783 49.0883C191.977 49.0116 192.124 48.9036 192.227 48.7644C192.332 48.6224 192.384 48.4548 192.384 48.2616C192.384 47.986 192.269 47.7701 192.039 47.6139C191.809 47.4548 191.492 47.3752 191.089 47.3752H189.367V49.1991Z" fill="#F2F2F2"/>
    <path d="M197.81 53.1366C197.219 53.1366 196.701 52.996 196.255 52.7147C195.811 52.4335 195.465 52.04 195.215 51.5343C194.968 51.0286 194.844 50.4377 194.844 49.7616C194.844 49.0798 194.968 48.4846 195.215 47.9761C195.465 47.4676 195.811 47.0727 196.255 46.7914C196.701 46.5102 197.219 46.3695 197.81 46.3695C198.401 46.3695 198.918 46.5102 199.361 46.7914C199.807 47.0727 200.154 47.4676 200.401 47.9761C200.651 48.4846 200.776 49.0798 200.776 49.7616C200.776 50.4377 200.651 51.0286 200.401 51.5343C200.154 52.04 199.807 52.4335 199.361 52.7147C198.918 52.996 198.401 53.1366 197.81 53.1366ZM197.81 52.2332C198.259 52.2332 198.628 52.1181 198.918 51.888C199.208 51.6579 199.422 51.3553 199.561 50.9803C199.701 50.6053 199.77 50.1991 199.77 49.7616C199.77 49.3241 199.701 48.9164 199.561 48.5386C199.422 48.1607 199.208 47.8553 198.918 47.6224C198.628 47.3894 198.259 47.2729 197.81 47.2729C197.361 47.2729 196.992 47.3894 196.702 47.6224C196.412 47.8553 196.198 48.1607 196.059 48.5386C195.919 48.9164 195.85 49.3241 195.85 49.7616C195.85 50.1991 195.919 50.6053 196.059 50.9803C196.198 51.3553 196.412 51.6579 196.702 51.888C196.992 52.1181 197.361 52.2332 197.81 52.2332Z" fill="#F2F2F2"/>
    <path d="M205.055 53.1366C204.425 53.1366 203.881 52.9974 203.423 52.719C202.969 52.4377 202.618 52.0457 202.371 51.5428C202.126 51.0372 202.004 50.4491 202.004 49.7786C202.004 49.1082 202.126 48.5173 202.371 48.0059C202.618 47.4917 202.962 47.0911 203.402 46.8042C203.845 46.5144 204.362 46.3695 204.953 46.3695C205.294 46.3695 205.631 46.4264 205.963 46.54C206.295 46.6536 206.598 46.8383 206.871 47.094C207.143 47.3468 207.361 47.682 207.523 48.0997C207.685 48.5173 207.766 49.0315 207.766 49.6423V50.0684H202.72V49.1991H206.743C206.743 48.8298 206.669 48.5002 206.521 48.2104C206.376 47.9207 206.169 47.692 205.899 47.5244C205.632 47.3568 205.317 47.2729 204.953 47.2729C204.553 47.2729 204.206 47.3724 203.913 47.5712C203.624 47.7673 203.401 48.0229 203.244 48.3383C203.088 48.6536 203.01 48.9917 203.01 49.3525V49.932C203.01 50.4264 203.095 50.8454 203.266 51.1891C203.439 51.5301 203.679 51.79 203.986 51.969C204.293 52.1451 204.649 52.2332 205.055 52.2332C205.32 52.2332 205.558 52.1962 205.771 52.1224C205.987 52.0457 206.173 51.932 206.329 51.7815C206.486 51.6281 206.606 51.4377 206.692 51.2104L207.663 51.4832C207.561 51.8127 207.389 52.1025 207.148 52.3525C206.906 52.5997 206.608 52.7928 206.253 52.932C205.898 53.0684 205.499 53.1366 205.055 53.1366Z" fill="#F2F2F2"/>
    <path d="M213.335 46.4548V47.3923H210.301V53.0002H209.295V46.4548H213.335Z" fill="#F2F2F2"/>
    <path d="M217.122 53.1366C216.532 53.1366 216.013 52.996 215.567 52.7147C215.124 52.4335 214.777 52.04 214.527 51.5343C214.28 51.0286 214.157 50.4377 214.157 49.7616C214.157 49.0798 214.28 48.4846 214.527 47.9761C214.777 47.4676 215.124 47.0727 215.567 46.7914C216.013 46.5102 216.532 46.3695 217.122 46.3695C217.713 46.3695 218.23 46.5102 218.674 46.7914C219.12 47.0727 219.466 47.4676 219.713 47.9761C219.963 48.4846 220.088 49.0798 220.088 49.7616C220.088 50.4377 219.963 51.0286 219.713 51.5343C219.466 52.04 219.12 52.4335 218.674 52.7147C218.23 52.996 217.713 53.1366 217.122 53.1366ZM217.122 52.2332C217.571 52.2332 217.941 52.1181 218.23 51.888C218.52 51.6579 218.735 51.3553 218.874 50.9803C219.013 50.6053 219.083 50.1991 219.083 49.7616C219.083 49.3241 219.013 48.9164 218.874 48.5386C218.735 48.1607 218.52 47.8553 218.23 47.6224C217.941 47.3894 217.571 47.2729 217.122 47.2729C216.674 47.2729 216.304 47.3894 216.015 47.6224C215.725 47.8553 215.51 48.1607 215.371 48.5386C215.232 48.9164 215.162 49.3241 215.162 49.7616C215.162 50.1991 215.232 50.6053 215.371 50.9803C215.51 51.3553 215.725 51.6579 216.015 51.888C216.304 52.1181 216.674 52.2332 217.122 52.2332Z" fill="#F2F2F2"/>
    <path d="M229.856 44.0002L230.368 44.6139C230.169 44.807 229.939 44.942 229.678 45.0187C229.416 45.0954 229.121 45.1423 228.791 45.1593C228.462 45.1764 228.095 45.1934 227.692 45.2104C227.237 45.2275 226.861 45.3383 226.562 45.5428C226.264 45.7474 226.034 46.0428 225.872 46.4292C225.71 46.8156 225.606 47.29 225.561 47.8525H225.646C225.868 47.4434 226.175 47.1423 226.567 46.9491C226.959 46.7559 227.379 46.6593 227.828 46.6593C228.339 46.6593 228.8 46.7786 229.209 47.0173C229.618 47.2559 229.942 47.6096 230.18 48.0783C230.419 48.5471 230.538 49.1252 230.538 49.8127C230.538 50.4974 230.416 51.0883 230.172 51.5854C229.93 52.0826 229.591 52.4661 229.153 52.736C228.719 53.0031 228.209 53.1366 227.624 53.1366C227.038 53.1366 226.526 52.9988 226.085 52.7232C225.645 52.4448 225.303 52.0329 225.058 51.4874C224.814 50.9391 224.692 50.2616 224.692 49.4548V48.7559C224.692 47.2985 224.939 46.1934 225.433 45.4406C225.93 44.6877 226.678 44.2985 227.675 44.2729C228.027 44.2616 228.341 44.2587 228.616 44.2644C228.892 44.2701 229.132 44.2573 229.337 44.2261C229.541 44.1948 229.714 44.1195 229.856 44.0002ZM227.624 52.2332C228.018 52.2332 228.358 52.1337 228.642 51.9349C228.929 51.736 229.149 51.4562 229.303 51.0954C229.456 50.7318 229.533 50.3042 229.533 49.8127C229.533 49.3354 229.454 48.9292 229.298 48.594C229.145 48.2587 228.925 48.0031 228.638 47.8269C228.351 47.6508 228.007 47.5627 227.606 47.5627C227.314 47.5627 227.051 47.6124 226.818 47.7119C226.585 47.8113 226.386 47.9576 226.222 48.1508C226.057 48.344 225.929 48.5798 225.838 48.8582C225.75 49.1366 225.703 49.4548 225.697 49.8127C225.697 50.5457 225.869 51.1323 226.213 51.5727C226.557 52.013 227.027 52.2332 227.624 52.2332Z" fill="#F2F2F2"/>
    <path d="M233.082 51.5173L236.236 46.4548H237.395V53.0002H236.389V47.9377L233.253 53.0002H232.077V46.4548H233.082V51.5173Z" fill="#F2F2F2"/>
    <path d="M238.828 51.3298H239.902C239.924 51.6252 240.058 51.8497 240.302 52.0031C240.549 52.1565 240.87 52.2332 241.265 52.2332C241.669 52.2332 242.014 52.1508 242.301 51.986C242.588 51.8184 242.731 51.5485 242.731 51.1764C242.731 50.9576 242.677 50.7673 242.569 50.6053C242.461 50.4406 242.309 50.3127 242.113 50.2218C241.917 50.1309 241.686 50.0854 241.419 50.0854H240.294V49.182H241.419C241.819 49.182 242.115 49.0911 242.305 48.9093C242.498 48.7275 242.595 48.5002 242.595 48.2275C242.595 47.9349 242.491 47.7005 242.284 47.5244C242.076 47.3454 241.782 47.2559 241.402 47.2559C241.018 47.2559 240.698 47.3426 240.443 47.5158C240.187 47.6863 240.052 47.9065 240.038 48.1764H238.981C238.993 47.8241 239.1 47.513 239.305 47.2431C239.51 46.9704 239.788 46.7573 240.14 46.6039C240.493 46.4477 240.896 46.3695 241.35 46.3695C241.811 46.3695 242.21 46.4505 242.548 46.6124C242.889 46.7715 243.152 46.9889 243.336 47.2644C243.524 47.5372 243.617 47.8468 243.617 48.1934C243.617 48.5627 243.514 48.861 243.306 49.0883C243.099 49.3156 242.839 49.4775 242.527 49.5741V49.6423C242.774 49.6593 242.988 49.7389 243.17 49.8809C243.355 50.0201 243.498 50.2033 243.6 50.4306C243.703 50.6551 243.754 50.9036 243.754 51.1764C243.754 51.5741 243.647 51.9207 243.434 52.2161C243.221 52.5087 242.929 52.736 242.556 52.8979C242.184 53.057 241.76 53.1366 241.282 53.1366C240.819 53.1366 240.404 53.0613 240.038 52.9107C239.671 52.7573 239.38 52.5457 239.164 52.2758C238.951 52.0031 238.839 51.6877 238.828 51.3298Z" fill="#F2F2F2"/>
    <path d="M249.547 49.2673V50.2048H245.934V49.2673H249.547ZM246.172 46.4548V53.0002H245.167V46.4548H246.172ZM250.314 46.4548V53.0002H249.309V46.4548H250.314Z" fill="#F2F2F2"/>
    <path d="M254.895 53.1366C254.265 53.1366 253.72 52.9974 253.263 52.719C252.809 52.4377 252.458 52.0457 252.211 51.5428C251.966 51.0372 251.844 50.4491 251.844 49.7786C251.844 49.1082 251.966 48.5173 252.211 48.0059C252.458 47.4917 252.801 47.0911 253.242 46.8042C253.685 46.5144 254.202 46.3695 254.793 46.3695C255.134 46.3695 255.47 46.4264 255.803 46.54C256.135 46.6536 256.438 46.8383 256.711 47.094C256.983 47.3468 257.201 47.682 257.363 48.0997C257.524 48.5173 257.605 49.0315 257.605 49.6423V50.0684H252.56V49.1991H256.583C256.583 48.8298 256.509 48.5002 256.361 48.2104C256.216 47.9207 256.009 47.692 255.739 47.5244C255.472 47.3568 255.157 47.2729 254.793 47.2729C254.392 47.2729 254.046 47.3724 253.753 47.5712C253.463 47.7673 253.24 48.0229 253.084 48.3383C252.928 48.6536 252.85 48.9917 252.85 49.3525V49.932C252.85 50.4264 252.935 50.8454 253.105 51.1891C253.279 51.5301 253.519 51.79 253.826 51.969C254.132 52.1451 254.489 52.2332 254.895 52.2332C255.159 52.2332 255.398 52.1962 255.611 52.1224C255.827 52.0457 256.013 51.932 256.169 51.7815C256.326 51.6281 256.446 51.4377 256.532 51.2104L257.503 51.4832C257.401 51.8127 257.229 52.1025 256.988 52.3525C256.746 52.5997 256.448 52.7928 256.093 52.932C255.738 53.0684 255.338 53.1366 254.895 53.1366Z" fill="#F2F2F2"/>
    <path d="M261.794 53.1366C261.181 53.1366 260.652 52.9917 260.209 52.7019C259.766 52.4122 259.425 52.013 259.186 51.5045C258.948 50.996 258.828 50.415 258.828 49.7616C258.828 49.0968 258.951 48.5102 259.195 48.0016C259.442 47.4903 259.786 47.0911 260.226 46.8042C260.669 46.5144 261.186 46.3695 261.777 46.3695C262.238 46.3695 262.652 46.4548 263.022 46.6252C263.391 46.7957 263.693 47.0343 263.929 47.3411C264.165 47.6479 264.311 48.0059 264.368 48.415H263.363C263.286 48.1167 263.115 47.8525 262.851 47.6224C262.59 47.3894 262.238 47.2729 261.794 47.2729C261.402 47.2729 261.059 47.3752 260.763 47.5798C260.47 47.7815 260.242 48.067 260.077 48.4363C259.915 48.8028 259.834 49.2332 259.834 49.7275C259.834 50.2332 259.914 50.6735 260.073 51.0485C260.235 51.4235 260.462 51.7147 260.755 51.9221C261.05 52.1295 261.397 52.2332 261.794 52.2332C262.056 52.2332 262.293 52.1877 262.506 52.0968C262.719 52.0059 262.899 51.8752 263.047 51.7048C263.195 51.5343 263.3 51.3298 263.363 51.0911H264.368C264.311 51.4775 264.171 51.8255 263.946 52.1352C263.725 52.442 263.431 52.6863 263.064 52.8681C262.701 53.0471 262.277 53.1366 261.794 53.1366Z" fill="#F2F2F2"/>
    <path d="M267.765 53.1536C267.35 53.1536 266.973 53.0755 266.635 52.9193C266.297 52.7602 266.029 52.5315 265.83 52.2332C265.631 51.932 265.532 51.5684 265.532 51.1423C265.532 50.7673 265.605 50.4633 265.753 50.2303C265.901 49.9945 266.098 49.8099 266.345 49.6764C266.593 49.5428 266.865 49.4434 267.164 49.3781C267.465 49.3099 267.767 49.2559 268.071 49.2161C268.469 49.165 268.792 49.1266 269.039 49.1011C269.289 49.0727 269.47 49.0258 269.584 48.9604C269.701 48.8951 269.759 48.7815 269.759 48.6195V48.5854C269.759 48.165 269.644 47.8383 269.414 47.6053C269.186 47.3724 268.841 47.2559 268.378 47.2559C267.898 47.2559 267.522 47.361 267.249 47.5712C266.976 47.7815 266.784 48.0059 266.674 48.2445L265.719 47.9036C265.89 47.5059 266.117 47.1962 266.401 46.9747C266.688 46.7502 267 46.594 267.338 46.5059C267.679 46.415 268.015 46.3695 268.344 46.3695C268.554 46.3695 268.796 46.3951 269.068 46.4462C269.344 46.4945 269.61 46.5954 269.865 46.7488C270.124 46.9022 270.338 47.1337 270.509 47.4434C270.679 47.7531 270.765 48.1678 270.765 48.6877V53.0002H269.759V52.1139H269.708C269.64 52.2559 269.526 52.4079 269.367 52.5698C269.208 52.7318 268.996 52.8695 268.732 52.9832C268.468 53.0968 268.145 53.1536 267.765 53.1536ZM267.918 52.2502C268.316 52.2502 268.651 52.1721 268.924 52.0158C269.199 51.8596 269.407 51.6579 269.546 51.4107C269.688 51.1636 269.759 50.9036 269.759 50.6309V49.7104C269.716 49.7616 269.622 49.8085 269.478 49.8511C269.336 49.8908 269.171 49.9264 268.983 49.9576C268.799 49.986 268.618 50.0116 268.442 50.0343C268.269 50.0542 268.128 50.0712 268.02 50.0854C267.759 50.1195 267.515 50.1749 267.287 50.2516C267.063 50.3255 266.881 50.4377 266.742 50.5883C266.605 50.736 266.537 50.9377 266.537 51.1934C266.537 51.5428 266.667 51.807 266.925 51.986C267.186 52.1622 267.517 52.2502 267.918 52.2502Z" fill="#F2F2F2"/>
    <g filter="url(#filter0_di_440_328)">
        <circle cx="33" cy="28" r="28" fill="#2F80ED"/>
        <circle cx="33" cy="28" r="25.5" stroke="#F2F2F2" stroke-width="5"/>
    </g>
    <path d="M27.919 34.7747V33.8936C27.919 31.8743 28.0781 30.2651 28.3962 29.0658C28.7144 27.8665 29.1856 26.9058 29.8097 26.1838C30.4338 25.4495 31.1987 24.7887 32.1043 24.2013C32.8875 23.6873 33.585 23.1916 34.1969 22.7144C34.8211 22.2371 35.3106 21.7292 35.6655 21.1908C36.0326 20.6523 36.2162 20.0404 36.2162 19.3551C36.2162 18.7432 36.0693 18.2048 35.7756 17.7397C35.4819 17.2747 35.0842 16.9137 34.5824 16.6567C34.0807 16.3997 33.5239 16.2712 32.912 16.2712C32.2511 16.2712 31.6392 16.4242 31.0763 16.7301C30.5256 17.0361 30.0789 17.4583 29.7363 17.9967C29.4059 18.5352 29.2406 19.1593 29.2406 19.8691H19.842C19.8665 17.1768 20.4784 14.9923 21.6777 13.3158C22.877 11.627 24.4679 10.3909 26.4504 9.60773C28.433 8.81228 30.6113 8.41455 32.9854 8.41455C35.6043 8.41455 37.9417 8.80004 39.9976 9.57102C42.0536 10.3298 43.6751 11.4801 44.8621 13.0221C46.0492 14.5518 46.6427 16.467 46.6427 18.7677C46.6427 20.2485 46.3857 21.5518 45.8718 22.6777C45.37 23.7913 44.6663 24.7764 43.7607 25.6331C42.8674 26.4775 41.8211 27.2485 40.6218 27.946C39.7406 28.46 39.0003 28.9923 38.4006 29.543C37.801 30.0815 37.3482 30.6995 37.0422 31.3971C36.7363 32.0824 36.5833 32.9145 36.5833 33.8936V34.7747H27.919ZM32.398 47.1104C30.9784 47.1104 29.7607 46.6147 28.745 45.6235C27.7415 44.62 27.2459 43.4023 27.2581 41.9705C27.2459 40.5754 27.7415 39.3822 28.745 38.3909C29.7607 37.3997 30.9784 36.9041 32.398 36.9041C33.7441 36.9041 34.9312 37.3997 35.9592 38.3909C36.9994 39.3822 37.5256 40.5754 37.5378 41.9705C37.5256 42.925 37.2747 43.7939 36.7852 44.5771C36.3079 45.3481 35.6838 45.9661 34.9128 46.4312C34.1419 46.884 33.3036 47.1104 32.398 47.1104Z" fill="#F2F2F2"/>
    <path d="M74 21.5027V3.24955H86.3877V6.43137H77.8869V10.7807H85.7504V13.9626H77.8869V18.3209H86.4236V21.5027H74Z" fill="white"/>
    <path d="M93.1224 3.24955L96.8298 9.47059H96.9734L100.699 3.24955H105.088L99.4779 12.3761L105.214 21.5027H100.744L96.9734 15.2727H96.8298L93.0596 21.5027H88.6072L94.3612 12.3761L88.7149 3.24955H93.1224Z" fill="white"/>
    <path d="M107.548 21.5027V3.24955H114.801C116.195 3.24955 117.383 3.51396 118.365 4.04278C119.346 4.56566 120.094 5.29352 120.609 6.22638C121.129 7.1533 121.39 8.22282 121.39 9.43494C121.39 10.6471 121.126 11.7166 120.6 12.6435C120.073 13.5704 119.31 14.2923 118.311 14.8093C117.317 15.3262 116.115 15.5847 114.702 15.5847H110.079V12.492H114.074C114.822 12.492 115.438 12.3642 115.923 12.1087C116.414 11.8473 116.779 11.4878 117.018 11.0303C117.264 10.5668 117.386 10.0351 117.386 9.43494C117.386 8.82888 117.264 8.30006 117.018 7.84848C116.779 7.39097 116.414 7.03743 115.923 6.78788C115.432 6.53238 114.81 6.40464 114.056 6.40464H111.435V21.5027H107.548Z" fill="white"/>
    <path d="M123.914 21.5027V3.24955H136.302V6.43137H127.801V10.7807H135.665V13.9626H127.801V18.3209H136.338V21.5027H123.914Z" fill="white"/>
    <path d="M139.392 21.5027V3.24955H146.645C148.034 3.24955 149.219 3.49614 150.2 3.98931C151.188 4.47653 151.939 5.16875 152.453 6.06595C152.974 6.95722 153.234 8.00594 153.234 9.21212C153.234 10.4242 152.971 11.467 152.444 12.3405C151.918 13.208 151.155 13.8734 150.155 14.3369C149.162 14.8004 147.959 15.0321 146.547 15.0321H141.69V11.9305H145.918C146.66 11.9305 147.277 11.8295 147.768 11.6275C148.258 11.4254 148.623 11.1224 148.863 10.7184C149.108 10.3143 149.231 9.81224 149.231 9.21212C149.231 8.60606 149.108 8.09507 148.863 7.67914C148.623 7.26322 148.255 6.94831 147.759 6.7344C147.268 6.51456 146.648 6.40464 145.9 6.40464H143.279V21.5027H139.392ZM149.32 13.1961L153.89 21.5027H149.599L145.128 13.1961H149.32Z" fill="white"/>
    <path d="M155.281 6.43137V3.24955H170.38V6.43137H164.751V21.5027H160.909V6.43137H155.281Z" fill="white"/>
    <path d="M178.966 15.1569H182.269L183.93 17.2781L185.564 19.1676L188.643 23H185.016L182.897 20.4153L181.811 18.8824L178.966 15.1569ZM188.921 12.3761C188.921 14.3666 188.541 16.06 187.781 17.4563C187.027 18.8526 185.997 19.9192 184.693 20.656C183.394 21.3868 181.934 21.7522 180.312 21.7522C178.678 21.7522 177.212 21.3838 175.914 20.6471C174.615 19.9103 173.589 18.8437 172.835 17.4474C172.081 16.0511 171.704 14.3607 171.704 12.3761C171.704 10.3856 172.081 8.69222 172.835 7.2959C173.589 5.89958 174.615 4.83601 175.914 4.10517C177.212 3.36839 178.678 3 180.312 3C181.934 3 183.394 3.36839 184.693 4.10517C185.997 4.83601 187.027 5.89958 187.781 7.2959C188.541 8.69222 188.921 10.3856 188.921 12.3761ZM184.98 12.3761C184.98 11.0868 184.786 9.99941 184.397 9.11408C184.014 8.22876 183.472 7.55734 182.772 7.09982C182.072 6.64231 181.252 6.41355 180.312 6.41355C179.373 6.41355 178.553 6.64231 177.853 7.09982C177.152 7.55734 176.608 8.22876 176.219 9.11408C175.836 9.99941 175.644 11.0868 175.644 12.3761C175.644 13.6655 175.836 14.7528 176.219 15.6381C176.608 16.5235 177.152 17.1949 177.853 17.6524C178.553 18.1099 179.373 18.3387 180.312 18.3387C181.252 18.3387 182.072 18.1099 182.772 17.6524C183.472 17.1949 184.014 16.5235 184.397 15.6381C184.786 14.7528 184.98 13.6655 184.98 12.3761Z" fill="white"/>
    <path d="M192.803 21.7344C192.211 21.7344 191.702 21.5264 191.277 21.1105C190.858 20.6887 190.649 20.1836 190.649 19.5954C190.649 19.0131 190.858 18.514 191.277 18.098C191.702 17.6821 192.211 17.4742 192.803 17.4742C193.378 17.4742 193.88 17.6821 194.311 18.098C194.742 18.514 194.958 19.0131 194.958 19.5954C194.958 19.9875 194.856 20.347 194.652 20.6738C194.455 20.9947 194.195 21.2531 193.871 21.4492C193.548 21.6393 193.192 21.7344 192.803 21.7344Z" fill="white"/>
    <path d="M198.169 21.5027V3.24955H205.422C206.81 3.24955 207.995 3.49614 208.977 3.98931C209.964 4.47653 210.715 5.16875 211.23 6.06595C211.751 6.95722 212.011 8.00594 212.011 9.21212C212.011 10.4242 211.748 11.467 211.221 12.3405C210.694 13.208 209.931 13.8734 208.932 14.3369C207.938 14.8004 206.736 15.0321 205.323 15.0321H200.467V11.9305H204.695C205.437 11.9305 206.053 11.8295 206.544 11.6275C207.035 11.4254 207.4 11.1224 207.639 10.7184C207.885 10.3143 208.007 9.81224 208.007 9.21212C208.007 8.60606 207.885 8.09507 207.639 7.67914C207.4 7.26322 207.032 6.94831 206.535 6.7344C206.044 6.51456 205.425 6.40464 204.677 6.40464H202.056V21.5027H198.169ZM208.097 13.1961L212.666 21.5027H208.375L203.905 13.1961H208.097Z" fill="white"/>
    <path d="M226.113 3.24955H230V15.1034C230 16.4343 229.68 17.5989 229.039 18.5971C228.405 19.5954 227.516 20.3737 226.373 20.9323C225.23 21.4848 223.899 21.7611 222.379 21.7611C220.853 21.7611 219.518 21.4848 218.375 20.9323C217.232 20.3737 216.344 19.5954 215.709 18.5971C215.075 17.5989 214.758 16.4343 214.758 15.1034V3.24955H218.645V14.7736C218.645 15.4688 218.797 16.0868 219.102 16.6275C219.414 17.1682 219.85 17.593 220.413 17.902C220.976 18.2109 221.631 18.3654 222.379 18.3654C223.133 18.3654 223.788 18.2109 224.345 17.902C224.907 17.593 225.341 17.1682 225.646 16.6275C225.958 16.0868 226.113 15.4688 226.113 14.7736V3.24955Z" fill="white"/>
    <defs>
        <filter id="filter0_di_440_328" x="0" y="0" width="76" height="76" filterUnits="userSpaceOnUse" color-interpolation-filters="sRGB">
            <feFlood flood-opacity="0" result="BackgroundImageFix"/>
            <feColorMatrix in="SourceAlpha" type="matrix" values="0 0 0 0 0 0 0 0 0 0 0 0 0 0 0 0 0 0 127 0" result="hardAlpha"/>
            <feOffset dx="5" dy="10"/>
            <feGaussianBlur stdDeviation="5"/>
            <feComposite in2="hardAlpha" operator="out"/>
            <feColorMatrix type="matrix" values="0 0 0 0 0 0 0 0 0 0 0 0 0 0 0 0 0 0 0.15 0"/>
            <feBlend mode="normal" in2="BackgroundImageFix" result="effect1_dropShadow_440_328"/>
            <feBlend mode="normal" in="SourceGraphic" in2="effect1_dropShadow_440_328" result="shape"/>
            <feColorMatrix in="SourceAlpha" type="matrix" values="0 0 0 0 0 0 0 0 0 0 0 0 0 0 0 0 0 0 127 0" result="hardAlpha"/>
            <feOffset dx="5" dy="5"/>
            <feGaussianBlur stdDeviation="5"/>
            <feComposite in2="hardAlpha" operator="arithmetic" k2="-1" k3="1"/>
            <feColorMatrix type="matrix" values="0 0 0 0 0 0 0 0 0 0 0 0 0 0 0 0 0 0 0.3 0"/>
            <feBlend mode="normal" in2="shape" result="effect2_innerShadow_440_328"/>
        </filter>
    </defs>
</svg>
