<svg width="32" height="32" viewBox="0 0 32 32" fill="none" xmlns="http://www.w3.org/2000/svg">
    <path fill-rule="evenodd" clip-rule="evenodd" d="M25.3334 5.3335H6.66675H6.66675C4.45761 5.3335 2.66675 7.12436 2.66675 9.3335V9.3335V22.6668V22.6668C2.66675 24.876 4.45761 26.6668 6.66675 26.6668H25.3334V26.6668C27.5425 26.6668 29.3334 24.876 29.3334 22.6668V9.3335V9.3335C29.3334 7.12436 27.5425 5.3335 25.3334 5.3335V5.3335ZM24.4426 8.00016L16.0026 14.3335L7.56258 8.00016H24.4426ZM25.3334 24.0002H6.66675V24.0002C5.93037 24.0002 5.33341 23.4032 5.33341 22.6668V22.6668V9.66683L15.2001 17.0668V17.0668C15.4309 17.2399 15.7116 17.3335 16.0001 17.3335V17.3335C16.2886 17.3335 16.5693 17.2399 16.8001 17.0668L26.6667 9.66683V22.6668V22.6668C26.6667 23.4032 26.0698 24.0002 25.3334 24.0002V24.0002Z" fill="#2F80ED"/>
</svg>
