<svg width="32" height="32" viewBox="0 0 32 32" fill="none" xmlns="http://www.w3.org/2000/svg">
    <path fill-rule="evenodd" clip-rule="evenodd" d="M23.2001 29.3333H23.2001C11.8659 29.3186 2.68141 20.1341 2.66675 8.79999C2.66675 5.41264 5.41273 2.66666 8.80008 2.66666V2.66666C9.14454 2.66403 9.48841 2.69529 9.82675 2.75999L9.82675 2.75999C10.1538 2.80839 10.4754 2.88877 10.7867 2.99999V2.99999C11.2323 3.15633 11.562 3.5367 11.6534 3.99999L13.4801 12C13.5801 12.4412 13.4496 12.9031 13.1334 13.2267C12.9601 13.4133 12.9467 13.4267 11.3067 14.28C12.6201 17.1611 14.9243 19.4749 17.8001 20.8C18.6667 19.1467 18.6801 19.1333 18.8667 18.96C19.1903 18.6438 19.6522 18.5133 20.0934 18.6133L28.0934 20.44C28.5415 20.5439 28.9043 20.8715 29.0534 21.3067C29.1659 21.6231 29.2507 21.9488 29.3067 22.28C29.3604 22.6151 29.3872 22.9539 29.3867 23.2933V23.2933C29.3356 26.665 26.5721 29.363 23.2001 29.3333L23.2001 29.3333ZM8.80008 5.33332C6.88854 5.34063 5.34072 6.88844 5.33341 8.79999L5.33341 8.79901C5.34023 18.6635 13.3347 26.6587 23.1991 26.6666C25.1107 26.6593 26.6585 25.1115 26.6658 23.1999V22.7599L20.4801 21.3333L20.0935 22.0666C19.4935 23.2266 19.0535 24.0666 17.9335 23.6133C13.459 22.0117 9.94304 18.4811 8.36013 13.9999C7.88013 12.9599 8.7868 12.4799 9.93347 11.8799L10.6668 11.5199L9.24013 5.33328L8.80008 5.33332Z" fill="#2F80ED"/>
</svg>
