<svg xmlns="http://www.w3.org/2000/svg" display="none">

    <symbol id="phone" viewBox="0 0 20 20">
        <path fill-rule="evenodd" clip-rule="evenodd"
              d="M14.5001 18.3333H14.5001C7.41623 18.3241 1.67591 12.5838 1.66675 5.49993H1.66675C1.66675 3.38284 3.38299 1.6666 5.50008 1.6666V1.6666C5.71537 1.66496 5.93029 1.6845 6.14175 1.72493L6.14175 1.72493C6.34617 1.75518 6.54713 1.80542 6.74175 1.87493V1.87493C7.02024 1.97265 7.22627 2.21038 7.28341 2.49993L8.42508 7.49993C8.48761 7.7757 8.40603 8.06435 8.20841 8.2666C8.10008 8.38327 8.09175 8.3916 7.06675 8.92493C7.88757 10.7256 9.32775 12.1717 11.1251 12.9999C11.6667 11.9666 11.6751 11.9583 11.7917 11.8499C11.994 11.6523 12.2826 11.5707 12.5584 11.6333L17.5584 12.7749C17.8385 12.8399 18.0652 13.0446 18.1584 13.3166C18.2287 13.5144 18.2817 13.7179 18.3167 13.9249C18.3503 14.1344 18.367 14.3462 18.3667 14.5583V14.5583C18.3348 16.6656 16.6076 18.3518 14.5001 18.3333L14.5001 18.3333Z"/>
    </symbol>

    <symbol id="mail" viewBox="0 0 20 20">
        <path fill-rule="evenodd" clip-rule="evenodd"
              d="M15.8332 3.3335H4.1665H4.1665C2.7858 3.3335 1.6665 4.45279 1.6665 5.8335V5.8335V14.1668V14.1668C1.6665 15.5475 2.7858 16.6668 4.1665 16.6668H15.8332V16.6668C17.2139 16.6668 18.3332 15.5475 18.3332 14.1668V5.8335V5.8335C18.3332 4.45279 17.2139 3.3335 15.8332 3.3335V3.3335ZM15.2764 5.00016L10.0014 8.9585L4.7264 5.00016H15.2764ZM15.8332 15.0002H4.1665V15.0002C3.70627 15.0002 3.33317 14.6271 3.33317 14.1668V14.1668V6.04183L9.49984 10.6668V10.6668C9.64408 10.775 9.81953 10.8335 9.99984 10.8335V10.8335C10.1801 10.8335 10.3556 10.775 10.4998 10.6668L16.6665 6.04183V14.1668V14.1668C16.6665 14.6271 16.2934 15.0002 15.8332 15.0002V15.0002Z"/>
    </symbol>


    <symbol id="close" viewBox="0 0 14 14">
        <path fill-rule="evenodd" clip-rule="evenodd"
              d="M8.41189 7.00019L12.7119 2.71019C13.104 2.31806 13.104 1.68231 12.7119 1.29019C12.3198 0.898063 11.684 0.898063 11.2919 1.29019L7.00189 5.59019L2.71189 1.29019L2.71189 1.29019C2.31977 0.898063 1.68401 0.898063 1.29189 1.29019C0.89977 1.68231 0.89977 2.31807 1.29189 2.71019L5.59189 7.00019L1.29189 11.2902C0.89977 11.6791 0.897174 12.3123 1.28609 12.7044C1.28802 12.7063 1.28995 12.7083 1.29189 12.7102H1.29189C1.68081 13.1023 2.31397 13.1049 2.70609 12.716C2.70803 12.7141 2.70997 12.7121 2.71189 12.7102L7.00189 8.41018L11.2919 12.7102V12.7102C11.6808 13.1023 12.314 13.1049 12.7061 12.716C12.708 12.7141 12.71 12.7121 12.7119 12.7102C13.104 12.3213 13.1066 11.6881 12.7177 11.296C12.7158 11.294 12.7138 11.2921 12.7119 11.2902L8.41189 7.00019Z"/>
    </symbol>

</svg>